<svg width="1508" height="639" viewBox="0 0 1508 639" fill="none" xmlns="http://www.w3.org/2000/svg">
<path d="M1203.74 303.804C1205.48 300.671 1207.16 297.523 1208.78 294.36L1206.11 292.99C1207.73 289.834 1209.29 286.663 1210.79 283.478L1213.51 284.756C1215.03 281.516 1216.49 278.261 1217.89 274.99L1215.13 273.813C1216.52 270.556 1217.84 267.284 1219.09 263.998L1221.89 265.064C1223.16 261.719 1224.36 258.358 1225.48 254.98L1222.64 254.035C1223.19 252.361 1223.73 250.683 1224.24 249.001L1224.25 248.976L1224.26 248.952C1224.89 247.013 1225.56 245.09 1226.26 243.185L1229.08 244.223C1230.46 240.463 1231.99 236.771 1233.65 233.152L1230.92 231.903C1232.62 228.193 1234.45 224.558 1236.41 221.005L1239.04 222.456C1240.97 218.954 1243.04 215.533 1245.22 212.198L1242.71 210.554C1244.94 207.147 1247.3 203.828 1249.77 200.604L1252.15 202.43C1254.58 199.26 1257.13 196.183 1259.79 193.204L1257.55 191.207C1260.26 188.172 1263.08 185.238 1266 182.411L1268.09 184.567C1270.96 181.793 1273.93 179.123 1277 176.563L1275.08 174.259C1278.2 171.657 1281.41 169.167 1284.72 166.793L1286.47 169.231C1289.71 166.907 1293.04 164.698 1296.45 162.608L1294.88 160.049C1298.34 157.93 1301.89 155.932 1305.51 154.061L1306.89 156.726C1310.42 154.898 1314.04 153.193 1317.72 151.616L1316.54 148.858C1318.4 148.059 1320.29 147.293 1322.19 146.559C1324.09 145.818 1325.99 145.067 1327.88 144.304L1329 147.087C1332.82 145.55 1336.62 143.969 1340.4 142.344L1339.21 139.588C1342.97 137.972 1346.71 136.312 1350.42 134.608L1351.67 137.336C1355.41 135.623 1359.13 133.865 1362.83 132.064L1361.52 129.367C1365.19 127.577 1368.85 125.743 1372.48 123.867L1373.86 126.532C1377.51 124.646 1381.15 122.715 1384.76 120.742L1383.32 118.11C1386.91 116.149 1390.47 114.145 1394.01 112.099L1395.52 114.697C1399.08 112.64 1402.61 110.541 1406.13 108.399L1404.57 105.837C1408.06 103.71 1411.52 101.54 1414.96 99.3279L1416.59 101.852C1420.04 99.6293 1423.48 97.3647 1426.89 95.0582L1425.21 92.5736C1428.59 90.2832 1431.95 87.9511 1435.28 85.5778L1437.02 88.0216C1440.37 85.6377 1443.69 83.2122 1446.99 80.7456L1445.19 78.3439C1448.46 75.8952 1451.71 73.4056 1454.92 70.8755L1456.78 73.2336C1460.01 70.6928 1463.21 68.1114 1466.39 65.4896L1464.48 63.1766C1467.63 60.5747 1470.75 57.9328 1473.84 55.251L1475.8 57.5175C1478.91 54.8254 1481.98 52.0933 1485.03 49.3216L1483.01 47.103C1486.03 44.3534 1489.02 41.5646 1491.98 38.7369L1494.06 40.9063C1497.03 38.0685 1499.97 35.1917 1502.88 32.2761L1500.75 30.1572C1503.64 27.266 1506.49 24.3364 1509.31 21.3688L1511.49 23.4359C1514.32 20.4593 1517.11 17.4446 1519.88 14.392L1517.66 12.3779C1520.4 9.35206 1523.11 6.28888 1525.78 3.18849L1528.05 5.14845C1530.74 2.03957 1533.39 -1.10656 1536 -4.28953L1533.68 -6.19414C1536.27 -9.34789 1538.83 -12.5381 1541.36 -15.7646L1543.72 -13.9163C1546.25 -17.1501 1548.74 -20.4202 1551.2 -23.7261L1548.8 -25.517C1551.23 -28.7912 1553.64 -32.1008 1556 -35.4457L1558.45 -33.7131C1560.82 -37.0641 1563.16 -40.4503 1565.46 -43.8713L1562.97 -45.5446C1565.24 -48.9313 1567.48 -52.3524 1569.69 -55.8077L1572.21 -54.1944C1574.42 -57.6543 1576.59 -61.1482 1578.73 -64.676L1576.16 -66.2285C1578.27 -69.7193 1580.34 -73.2435 1582.38 -76.8008L1584.98 -75.3098C1587.02 -78.8699 1589.03 -82.4631 1590.99 -86.089L1588.35 -87.518C1589.33 -89.3158 1590.29 -91.1217 1591.25 -92.9358C1592.17 -94.6877 1593.08 -96.4426 1593.98 -98.2004L1596.65 -96.8331C1598.46 -100.369 1600.23 -103.917 1601.95 -107.477L1599.25 -108.783C1600.96 -112.331 1602.63 -115.891 1604.26 -119.462L1606.99 -118.218C1608.64 -121.836 1610.24 -125.464 1611.8 -129.103L1609.04 -130.283C1610.59 -133.903 1612.09 -137.533 1613.55 -141.173L1616.34 -140.056C1617.82 -143.747 1619.25 -147.448 1620.64 -151.157L1617.83 -152.209C1619.21 -155.897 1620.55 -159.594 1621.84 -163.299L1624.67 -162.312C1625.98 -166.065 1627.24 -169.827 1628.45 -173.596L1625.6 -174.517C1626.81 -178.267 1627.97 -182.024 1629.09 -185.789L1631.97 -184.935C1633.1 -188.741 1634.18 -192.554 1635.22 -196.373L1632.32 -197.16C1633.36 -200.963 1634.35 -204.773 1635.29 -208.588L1638.2 -207.869C1639.15 -211.72 1640.06 -215.577 1640.92 -219.439L1637.99 -220.091C1638.85 -223.939 1639.66 -227.792 1640.42 -231.65L1643.37 -231.066C1644.14 -234.955 1644.86 -238.848 1645.54 -242.745L1642.59 -243.26C1643.26 -247.145 1643.9 -251.033 1644.48 -254.923L1647.45 -254.477C1648.04 -258.396 1648.58 -262.317 1649.08 -266.241L1646.1 -266.619C1646.6 -270.531 1647.05 -274.445 1647.46 -278.359L1650.44 -278.051C1650.85 -281.992 1651.21 -285.934 1651.53 -289.876L1648.54 -290.116C1648.85 -294.047 1649.12 -297.978 1649.35 -301.908L1652.34 -301.737C1652.57 -305.692 1652.75 -309.646 1652.88 -313.599L1649.88 -313.701C1650.02 -317.642 1650.1 -321.582 1650.15 -325.519L1653.15 -325.486C1653.19 -329.447 1653.19 -333.405 1653.14 -337.36L1650.14 -337.324C1650.09 -341.267 1650 -345.206 1649.86 -349.142L1652.86 -349.247C1652.72 -353.206 1652.54 -357.161 1652.31 -361.111L1649.32 -360.937C1649.09 -364.872 1648.81 -368.803 1648.5 -372.728L1651.49 -372.97C1651.17 -376.918 1650.8 -380.861 1650.39 -384.798L1647.41 -384.488C1647 -388.408 1646.55 -392.321 1646.05 -396.227L1649.03 -396.605C1648.53 -400.535 1647.99 -404.458 1647.4 -408.373L1644.43 -407.927C1643.85 -411.823 1643.22 -415.711 1642.54 -419.591L1645.5 -420.104C1644.82 -424.007 1644.1 -427.902 1643.33 -431.787L1640.39 -431.206C1639.63 -435.071 1638.82 -438.926 1637.97 -442.771L1640.9 -443.418C1640.05 -447.286 1639.15 -451.144 1638.21 -454.991L1635.29 -454.278C1634.36 -458.103 1633.38 -461.918 1632.35 -465.72L1635.25 -466.5C1634.22 -470.325 1633.15 -474.138 1632.03 -477.939L1629.16 -477.094C1628.05 -480.873 1626.89 -484.639 1625.7 -488.391L1628.56 -489.301C1627.36 -493.075 1626.11 -496.836 1624.83 -500.582L1621.99 -499.608C1620.71 -503.332 1619.39 -507.042 1618.02 -510.737L1620.84 -511.776C1619.47 -515.491 1618.05 -519.191 1616.6 -522.875L1613.81 -521.773C1612.36 -525.435 1610.87 -529.081 1609.34 -532.711L1612.11 -533.876C1610.57 -537.525 1608.99 -541.157 1607.36 -544.771L1604.63 -543.543C1603.02 -547.136 1601.36 -550.711 1599.67 -554.267L1602.38 -555.558C1600.67 -559.132 1598.93 -562.688 1597.15 -566.224L1594.47 -564.873C1592.69 -568.388 1590.88 -571.885 1589.02 -575.361L1591.67 -576.773C1589.81 -580.265 1587.9 -583.738 1585.96 -587.189L1583.34 -585.717C1581.41 -589.147 1579.44 -592.558 1577.43 -595.947L1580.01 -597.479C1577.99 -600.881 1575.92 -604.262 1573.82 -607.62L1571.28 -606.029C1569.19 -609.368 1567.07 -612.685 1564.9 -615.979L1567.41 -617.628C1565.23 -620.933 1563.02 -624.215 1560.77 -627.473L1558.3 -625.767C1556.06 -629.006 1553.78 -632.222 1551.47 -635.413L1553.89 -637.175C1551.57 -640.376 1549.21 -643.553 1546.81 -646.704L1544.42 -644.887C1542.04 -648.019 1539.61 -651.126 1537.15 -654.207L1539.5 -656.079C1537.03 -659.169 1534.52 -662.234 1531.98 -665.271L1529.68 -663.345C1527.15 -666.363 1524.59 -669.354 1521.99 -672.318L1524.24 -674.297C1521.63 -677.269 1518.99 -680.215 1516.3 -683.132L1514.1 -681.102C1511.43 -683.998 1508.73 -686.866 1506 -689.706L1508.16 -691.787C1505.42 -694.636 1502.63 -697.456 1499.82 -700.247L1497.71 -698.117C1494.91 -700.885 1492.09 -703.624 1489.22 -706.333L1491.28 -708.512C1488.41 -711.231 1485.5 -713.92 1482.55 -716.579L1480.54 -714.352C1477.63 -716.986 1474.67 -719.589 1471.69 -722.162L1473.65 -724.434C1470.65 -727.018 1467.61 -729.57 1464.55 -732.091L1462.64 -729.773C1459.61 -732.266 1456.54 -734.728 1453.44 -737.158L1455.29 -739.519C1452.17 -741.962 1449.02 -744.372 1445.84 -746.75L1444.04 -744.346C1440.9 -746.694 1437.72 -749.009 1434.51 -751.291L1436.25 -753.736C1433.02 -756.031 1429.76 -758.294 1426.47 -760.523L1424.79 -758.039C1421.54 -760.236 1418.26 -762.401 1414.95 -764.533L1416.57 -767.055C1413.25 -769.197 1409.89 -771.306 1406.5 -773.38L1404.93 -770.821C1401.58 -772.868 1398.2 -774.881 1394.8 -776.86L1396.3 -779.454C1392.88 -781.439 1389.43 -783.389 1385.95 -785.304L1384.51 -782.676C1382.78 -783.628 1381.04 -784.571 1379.29 -785.506C1377.53 -786.45 1375.76 -787.382 1373.99 -788.303L1375.38 -790.964C1371.82 -792.817 1368.25 -794.624 1364.67 -796.387L1363.34 -793.695C1359.77 -795.452 1356.19 -797.164 1352.6 -798.831L1353.86 -801.553C1350.22 -803.243 1346.57 -804.887 1342.9 -806.485L1341.7 -803.736C1338.06 -805.326 1334.41 -806.87 1330.75 -808.369L1331.88 -811.146C1328.16 -812.667 1324.44 -814.143 1320.7 -815.572L1319.63 -812.77C1315.92 -814.19 1312.19 -815.565 1308.46 -816.894L1309.47 -819.72C1305.69 -821.067 1301.9 -822.367 1298.1 -823.621L1297.16 -820.772C1293.38 -822.02 1289.6 -823.222 1285.81 -824.377L1286.68 -827.247C1282.85 -828.415 1279 -829.537 1275.16 -830.612L1274.35 -827.723C1270.51 -828.794 1266.67 -829.819 1262.83 -830.797L1263.57 -833.704C1259.69 -834.692 1255.8 -835.633 1251.91 -836.527L1251.24 -833.603C1247.36 -834.495 1243.47 -835.339 1239.58 -836.138L1240.18 -839.076C1236.26 -839.881 1232.34 -840.639 1228.41 -841.351L1227.87 -838.399C1223.96 -839.108 1220.03 -839.771 1216.11 -840.387L1216.57 -843.351C1212.62 -843.972 1208.67 -844.546 1204.71 -845.073L1204.31 -842.099C1200.37 -842.625 1196.42 -843.104 1192.47 -843.537L1192.79 -846.519C1188.82 -846.954 1184.84 -847.343 1180.86 -847.685L1180.6 -844.696C1176.64 -845.037 1172.67 -845.332 1168.7 -845.58L1168.89 -848.574C1164.9 -848.824 1160.91 -849.027 1156.92 -849.184L1156.8 -846.186C1152.82 -846.342 1148.84 -846.452 1144.87 -846.515L1144.92 -849.515C1140.92 -849.578 1136.92 -849.596 1132.93 -849.566L1132.95 -846.567C1128.97 -846.538 1124.99 -846.462 1121.02 -846.341L1120.92 -849.34C1116.93 -849.218 1112.93 -849.049 1108.94 -848.835L1109.11 -845.839C1105.13 -845.626 1101.16 -845.366 1097.2 -845.061L1096.97 -848.052C1092.98 -847.745 1089 -847.391 1085.02 -846.992L1085.32 -844.007C1081.36 -843.61 1077.41 -843.167 1073.46 -842.679L1073.1 -845.656C1069.13 -845.165 1065.16 -844.628 1061.21 -844.045L1061.65 -841.077C1057.71 -840.498 1053.78 -839.873 1049.87 -839.203L1049.36 -842.16C1045.42 -841.486 1041.48 -840.766 1037.56 -840.002L1038.13 -837.057C1034.23 -836.296 1030.34 -835.491 1026.45 -834.641L1025.81 -837.571C1021.9 -836.716 1018.01 -835.816 1014.12 -834.871L1014.83 -831.956C1010.97 -831.016 1007.11 -830.032 1003.27 -829.004L1002.5 -831.902C998.634 -830.868 994.783 -829.789 990.945 -828.666L991.788 -825.787C987.971 -824.67 984.168 -823.51 980.379 -822.305L979.471 -825.164C975.659 -823.953 971.862 -822.698 968.08 -821.399L969.054 -818.562C965.294 -817.271 961.548 -815.936 957.818 -814.558L956.779 -817.373C953.028 -815.987 949.292 -814.558 945.573 -813.086L946.678 -810.297C942.981 -808.834 939.301 -807.328 935.638 -805.779L934.47 -808.542C930.787 -806.986 927.122 -805.386 923.475 -803.744L924.707 -801.008C921.082 -799.376 917.475 -797.702 913.887 -795.985L912.592 -798.691C908.986 -796.967 905.399 -795.199 901.832 -793.39L903.189 -790.715C899.643 -788.917 896.117 -787.077 892.611 -785.196L891.193 -787.839C887.672 -785.95 884.171 -784.019 880.691 -782.046L882.171 -779.437C878.712 -777.476 875.274 -775.474 871.859 -773.432L870.319 -776.007C866.891 -773.957 863.484 -771.866 860.1 -769.734L861.699 -767.196C858.335 -765.077 854.993 -762.917 851.675 -760.717L850.017 -763.218C846.689 -761.011 843.384 -758.765 840.103 -756.478L841.818 -754.017C838.557 -751.744 835.319 -749.431 832.107 -747.079L830.335 -749.499C827.113 -747.14 823.916 -744.742 820.745 -742.305L822.574 -739.926C819.422 -737.504 816.297 -735.042 813.197 -732.543L811.314 -734.878C808.206 -732.371 805.125 -729.826 802.071 -727.242L804.008 -724.952C800.974 -722.386 797.968 -719.781 794.988 -717.139L792.998 -719.384C790.011 -716.735 787.052 -714.048 784.121 -711.323L786.163 -709.126C783.254 -706.421 780.373 -703.68 777.521 -700.901L775.427 -703.05C772.568 -700.263 769.737 -697.44 766.935 -694.58L769.079 -692.481C766.301 -689.644 763.552 -686.772 760.834 -683.863L758.642 -685.911C755.915 -682.993 753.218 -680.039 750.552 -677.049L752.792 -675.053C750.151 -672.091 747.542 -669.094 744.963 -666.062L742.678 -668.006C740.089 -664.962 737.532 -661.883 735.007 -658.769L737.337 -656.879C734.841 -653.8 732.375 -650.686 729.942 -647.538L727.569 -649.373C725.124 -646.209 722.711 -643.012 720.331 -639.78L722.747 -638.001C720.399 -634.812 718.084 -631.589 715.801 -628.333L713.345 -630.055C711.049 -626.78 708.787 -623.472 706.558 -620.13L709.054 -618.466C706.858 -615.173 704.696 -611.848 702.567 -608.49L700.033 -610.097C697.894 -606.722 695.788 -603.314 693.717 -599.875L696.287 -598.328C694.245 -594.935 692.236 -591.51 690.261 -588.054L687.656 -589.542C685.677 -586.076 683.732 -582.579 681.822 -579.051L684.46 -577.623C683.511 -575.869 682.57 -574.107 681.639 -572.338L681.638 -572.337L681.638 -572.336L681.637 -572.335L681.637 -572.334L681.636 -572.333L681.636 -572.333L681.635 -572.332L681.635 -572.331L681.635 -572.33L681.634 -572.329L681.634 -572.329L681.633 -572.328L681.633 -572.327L681.632 -572.326L681.632 -572.325L681.632 -572.324L681.631 -572.324L681.631 -572.323L681.63 -572.322L681.63 -572.321L681.629 -572.32L681.629 -572.319L681.628 -572.318L681.628 -572.317L681.627 -572.317L681.627 -572.316L681.627 -572.315L681.626 -572.314L681.626 -572.313L681.625 -572.312L681.625 -572.311L681.624 -572.31L681.624 -572.309L681.623 -572.308L681.623 -572.307L681.622 -572.306L681.622 -572.305L681.621 -572.305L681.621 -572.304L681.62 -572.303L681.62 -572.302L681.619 -572.301L681.619 -572.3L681.618 -572.3L681.618 -572.299L681.618 -572.298L681.617 -572.297L681.617 -572.296L681.616 -572.295L681.616 -572.294L681.615 -572.293L681.615 -572.292L681.614 -572.291L681.613 -572.29L681.613 -572.289L681.612 -572.288L681.612 -572.287L681.611 -572.286L681.611 -572.285L681.61 -572.284L681.609 -572.282L681.609 -572.281L681.608 -572.28L681.608 -572.279L681.607 -572.278L681.607 -572.277L681.606 -572.276L681.606 -572.275L681.605 -572.275L681.605 -572.274L681.604 -572.273L681.604 -572.272L681.604 -572.271L681.603 -572.27L681.603 -572.27L681.602 -572.269L681.602 -572.268L681.601 -572.267L681.601 -572.266L681.6 -572.265L681.6 -572.264L681.599 -572.263L681.599 -572.262L681.598 -572.261L681.598 -572.261L681.597 -572.26L681.597 -572.259L681.596 -572.258L681.596 -572.257L681.595 -572.256L681.595 -572.255L681.594 -572.254L681.594 -572.253L681.593 -572.252L678.939 -573.65L678.848 -573.477L681.502 -572.079L681.502 -572.078L681.501 -572.077L681.501 -572.076L681.5 -572.075L681.5 -572.074L681.499 -572.073L681.499 -572.072L681.498 -572.071L681.498 -572.071L681.497 -572.07L681.497 -572.069L681.496 -572.068L681.496 -572.067L681.496 -572.066L681.495 -572.065L681.495 -572.064L681.494 -572.064L681.494 -572.063L681.493 -572.062L681.493 -572.061L681.492 -572.06L681.492 -572.059L681.492 -572.059L681.491 -572.058L681.491 -572.057L681.49 -572.056L681.49 -572.055L681.489 -572.055L681.489 -572.054L681.489 -572.053L681.488 -572.052L681.488 -572.051L681.487 -572.05L681.487 -572.05L681.486 -572.049L681.486 -572.048L681.486 -572.047L681.485 -572.046L681.485 -572.046L681.484 -572.045L681.484 -572.044L681.483 -572.043L681.483 -572.042L681.483 -572.041L681.482 -572.04L681.482 -572.04L681.481 -572.039L681.481 -572.038L681.48 -572.037L681.48 -572.036L681.479 -572.035L681.479 -572.035L681.478 -572.034L681.478 -572.033L681.478 -572.032L681.477 -572.031L681.477 -572.03L681.476 -572.029L681.476 -572.029L681.475 -572.028L681.475 -572.027L681.474 -572.026L681.474 -572.025L681.474 -572.024L681.473 -572.023L681.473 -572.023L681.472 -572.022L681.472 -572.021L681.471 -572.02L681.471 -572.019L681.47 -572.018L681.47 -572.017L681.469 -572.016L681.469 -572.016L681.468 -572.015L681.468 -572.014L681.467 -572.013L681.467 -572.012L681.467 -572.011L681.466 -572.01L681.466 -572.009L681.465 -572.008L681.465 -572.007L681.464 -572.007L681.464 -572.006L681.463 -572.005L681.463 -572.004L681.462 -572.003L681.462 -572.002L681.461 -572.001L681.461 -572L681.46 -571.999L681.46 -571.998L681.459 -571.997L681.459 -571.997L681.458 -571.996L681.458 -571.995L681.457 -571.994L681.457 -571.993C680.669 -570.496 679.768 -569.079 678.77 -567.752L676.373 -569.555C674.527 -567.101 672.312 -564.989 669.837 -563.294L671.532 -560.819C668.749 -558.914 665.663 -557.479 662.396 -556.606L661.622 -559.505C658.731 -558.733 655.691 -558.454 652.612 -558.744L652.331 -555.757C650.679 -555.912 649.019 -556.214 647.366 -556.669C645.454 -557.179 643.54 -557.675 641.625 -558.155L642.355 -561.065C638.49 -562.034 634.618 -562.944 630.741 -563.795L630.099 -560.864C626.23 -561.713 622.356 -562.502 618.479 -563.232L619.034 -566.18C615.115 -566.918 611.192 -567.595 607.267 -568.213L606.8 -565.25C602.894 -565.865 598.984 -566.42 595.073 -566.917L595.451 -569.893C591.496 -570.395 587.539 -570.837 583.582 -571.22L583.294 -568.234C579.356 -568.615 575.417 -568.936 571.48 -569.199L571.679 -572.192C567.704 -572.457 563.73 -572.662 559.758 -572.808L559.648 -569.81C555.696 -569.955 551.747 -570.042 547.801 -570.069L547.822 -573.069C543.837 -573.096 539.855 -573.065 535.879 -572.974L535.947 -569.975C531.995 -569.884 528.047 -569.735 524.105 -569.528L523.948 -572.524C519.971 -572.314 516.001 -572.046 512.038 -571.719L512.284 -568.73C508.344 -568.405 504.411 -568.021 500.486 -567.58L500.151 -570.561C496.193 -570.117 492.245 -569.613 488.306 -569.052L488.73 -566.082C484.817 -565.524 480.915 -564.909 477.024 -564.236L476.513 -567.192C472.59 -566.514 468.677 -565.778 464.778 -564.984L465.377 -562.045C461.504 -561.256 457.644 -560.411 453.799 -559.509L453.114 -562.43C449.238 -561.521 445.377 -560.555 441.531 -559.532L442.302 -556.633C438.484 -555.618 434.681 -554.546 430.895 -553.418L430.039 -556.293C426.224 -555.157 422.426 -553.965 418.646 -552.716L419.587 -549.868C415.836 -548.629 412.104 -547.334 408.39 -545.984L407.366 -548.804C403.625 -547.445 399.904 -546.03 396.205 -544.56L397.312 -541.772C393.642 -540.313 389.992 -538.8 386.364 -537.233L385.175 -539.987C381.522 -538.409 377.892 -536.777 374.286 -535.09L375.556 -532.373C371.979 -530.7 368.425 -528.974 364.896 -527.194L363.545 -529.873C359.993 -528.081 356.465 -526.236 352.963 -524.338L354.393 -521.701C350.923 -519.82 347.478 -517.886 344.061 -515.9L342.554 -518.494C339.115 -516.495 335.704 -514.444 332.321 -512.341L333.905 -509.794C330.552 -507.709 327.227 -505.573 323.932 -503.385L322.273 -505.885C318.96 -503.686 315.678 -501.436 312.427 -499.136L314.16 -496.687C310.939 -494.408 307.749 -492.078 304.591 -489.699L302.786 -492.095C299.609 -489.702 296.465 -487.259 293.355 -484.766L295.231 -482.425C292.152 -479.958 289.107 -477.441 286.096 -474.877L284.15 -477.16C281.126 -474.584 278.135 -471.959 275.181 -469.286L277.194 -467.061C274.268 -464.414 271.378 -461.72 268.525 -458.978L266.446 -461.141C263.58 -458.387 260.75 -455.586 257.958 -452.737L260.1 -450.637C257.342 -447.823 254.621 -444.963 251.938 -442.057L249.734 -444.092C247.039 -441.173 244.383 -438.208 241.766 -435.198L244.03 -433.23C241.442 -430.252 238.893 -427.229 236.384 -424.162L234.062 -426.062C231.55 -422.991 229.078 -419.877 226.648 -416.718L229.025 -414.888C226.623 -411.766 224.26 -408.6 221.94 -405.391L219.509 -407.149C217.18 -403.928 214.892 -400.664 212.648 -397.358L215.13 -395.673C212.92 -392.418 210.752 -389.121 208.627 -385.783L206.096 -387.394C203.966 -384.047 201.878 -380.659 199.834 -377.23L202.411 -375.694C200.392 -372.306 198.416 -368.877 196.484 -365.409L193.863 -366.869C191.936 -363.409 190.053 -359.909 188.214 -356.371L190.876 -354.988C189.964 -353.231 189.062 -351.465 188.172 -349.689C187.272 -347.896 186.388 -346.099 185.518 -344.299L182.817 -345.604C181.064 -341.977 179.372 -338.335 177.739 -334.68L180.478 -333.456C178.844 -329.799 177.271 -326.128 175.757 -322.444L172.982 -323.585C171.452 -319.862 169.982 -316.127 168.573 -312.38L171.381 -311.324C169.971 -307.576 168.622 -303.817 167.334 -300.048L164.495 -301.019C163.192 -297.207 161.95 -293.385 160.768 -289.554L163.635 -288.67C162.458 -284.851 161.341 -281.024 160.285 -277.188L157.393 -277.985C156.323 -274.099 155.314 -270.205 154.366 -266.303L157.281 -265.595C156.339 -261.715 155.457 -257.827 154.635 -253.934L151.7 -254.554C150.868 -250.612 150.098 -246.664 149.389 -242.713L152.342 -242.183C151.636 -238.25 150.992 -234.313 150.408 -230.373L147.44 -230.813C146.85 -226.834 146.321 -222.851 145.853 -218.867L148.833 -218.517C148.367 -214.548 147.961 -210.576 147.616 -206.604L144.628 -206.864C144.28 -202.856 143.992 -198.847 143.766 -194.84L146.761 -194.671C146.536 -190.683 146.371 -186.697 146.266 -182.713L143.267 -182.792C143.161 -178.769 143.116 -174.749 143.131 -170.732L146.131 -170.743C146.146 -166.752 146.221 -162.765 146.355 -158.782L143.357 -158.681C143.493 -154.659 143.688 -150.643 143.944 -146.633L146.938 -146.824C147.192 -142.84 147.505 -138.862 147.878 -134.893L144.891 -134.612C145.266 -130.609 145.701 -126.613 146.195 -122.627L149.172 -122.996C149.664 -119.034 150.213 -115.081 150.821 -111.139L147.857 -110.681C148.469 -106.708 149.141 -102.745 149.871 -98.7938L152.821 -99.339C153.547 -95.4143 154.33 -91.5016 155.171 -87.6021L152.238 -86.9698C153.086 -83.0397 153.991 -79.1229 154.954 -75.221L157.867 -75.9398C158.823 -72.0659 159.836 -68.2065 160.907 -64.3633L158.016 -63.5585C159.095 -59.6859 160.23 -55.8295 161.422 -51.9908L164.287 -52.8805C165.471 -49.0703 166.71 -45.2775 168.006 -41.5034L165.168 -40.5294C166.473 -36.7277 167.835 -32.945 169.252 -29.1827L172.059 -30.24C173.465 -26.5071 174.927 -22.7942 176.443 -19.1031L173.668 -17.9632C175.195 -14.2458 176.777 -10.5502 178.414 -6.87783L181.154 -8.09931C182.778 -4.45598 184.457 -0.835588 186.189 2.76044L183.486 4.06248C185.23 7.68195 187.028 11.2767 188.879 14.8458L191.542 13.4644C193.379 17.0052 195.269 20.5204 197.212 24.0083L194.591 25.4681C196.546 28.9772 198.554 32.4593 200.614 35.9127L203.19 34.3756C205.233 37.7995 207.328 41.1952 209.474 44.5612L206.945 46.1742C209.105 49.5621 211.318 52.9203 213.582 56.2473L216.062 54.5596C218.304 57.8538 220.596 61.1172 222.939 64.3486L220.51 66.1096C222.868 69.3612 225.276 72.5806 227.735 75.7662L230.11 73.9333C232.545 77.0886 235.03 80.2107 237.564 83.2981L235.245 85.2015C237.792 88.3037 240.387 91.3713 243.032 94.4029L245.292 92.4309C247.913 95.4352 250.582 98.4041 253.3 101.336L251.099 103.375C253.826 106.317 256.601 109.223 259.423 112.09L261.561 109.985C264.355 112.824 267.196 115.624 270.084 118.386L268.011 120.554C270.912 123.329 273.86 126.065 276.855 128.761L278.862 126.531C281.819 129.193 284.821 131.815 287.869 134.396L285.93 136.685C288.993 139.28 292.102 141.833 295.255 144.344L297.123 141.997C300.236 144.476 303.392 146.912 306.592 149.307L304.795 151.709C308.005 154.11 311.258 156.469 314.555 158.784L316.279 156.329C319.539 158.619 322.842 160.865 326.187 163.066L324.537 165.572C327.881 167.773 331.266 169.929 334.693 172.04L336.267 169.486C339.657 171.575 343.089 173.619 346.561 175.617L345.064 178.217C348.535 180.214 352.045 182.166 355.594 184.07L357.013 181.427C358.772 182.371 360.541 183.303 362.319 184.223C364.129 185.153 365.943 186.068 367.761 186.968L366.43 189.656C370.11 191.478 373.805 193.238 377.513 194.938L378.763 192.21C382.467 193.907 386.185 195.544 389.915 197.119L388.748 199.883C392.527 201.479 396.32 203.014 400.125 204.487L401.208 201.69C405.006 203.161 408.816 204.57 412.637 205.918L411.639 208.747C415.508 210.112 419.387 211.415 423.276 212.656L424.188 209.798C428.066 211.035 431.954 212.21 435.85 213.324L435.025 216.209C438.968 217.336 442.919 218.4 446.877 219.403L447.613 216.494C451.559 217.494 455.511 218.43 459.469 219.305L458.821 222.235C462.825 223.12 466.834 223.942 470.847 224.702L471.405 221.754C475.403 222.511 479.405 223.205 483.41 223.838L482.942 226.801C486.99 227.44 491.041 228.017 495.094 228.531L495.471 225.555C499.506 226.066 503.543 226.516 507.58 226.904L507.293 229.89C511.372 230.281 515.451 230.611 519.529 230.877L519.725 227.884C523.783 228.149 527.84 228.352 531.894 228.494L531.79 231.492C535.884 231.635 539.975 231.716 544.062 231.734L544.076 228.734C548.142 228.753 552.204 228.71 556.26 228.605L556.337 231.604C560.431 231.499 564.52 231.331 568.602 231.102L568.433 228.107C570.462 227.993 572.489 227.863 574.513 227.719L574.516 227.719C576.512 227.578 578.502 227.497 580.482 227.476L580.514 230.476C584.409 230.435 588.266 230.63 592.072 231.051L592.401 228.069C596.384 228.51 600.31 229.19 604.163 230.099L603.475 233.018C607.247 233.908 610.946 235.023 614.557 236.353L615.594 233.538C619.336 234.916 622.986 236.518 626.523 238.332L625.155 241.002C628.59 242.762 631.917 244.728 635.118 246.889L636.796 244.402C640.089 246.624 643.253 249.045 646.27 251.654L644.308 253.923C647.218 256.439 649.987 259.134 652.599 261.998L654.815 259.976C657.482 262.9 659.988 265.994 662.318 269.246L659.879 270.993C662.11 274.108 664.175 277.374 666.056 280.779L668.682 279.328C669.638 281.058 670.548 282.822 671.41 284.621C672.287 286.412 673.182 288.196 674.094 289.972L671.426 291.343C673.269 294.932 675.183 298.49 677.166 302.013L679.78 300.542C681.74 304.024 683.769 307.473 685.866 310.886L683.31 312.456C685.422 315.893 687.602 319.294 689.851 322.655L692.345 320.987C694.566 324.307 696.854 327.589 699.209 330.83L696.782 332.593C699.153 335.856 701.591 339.077 704.095 342.254L706.451 340.397C708.923 343.533 711.46 346.626 714.062 349.673L711.78 351.621C714.398 354.686 717.081 357.706 719.829 360.678L722.031 358.641C724.741 361.571 727.514 364.453 730.35 367.286L728.23 369.408C731.081 372.256 733.995 375.053 736.972 377.798L739.005 375.592C741.938 378.296 744.931 380.948 747.986 383.546L746.042 385.831C749.11 388.44 752.238 390.995 755.427 393.495L757.277 391.133C760.415 393.592 763.611 395.995 766.866 398.342L765.112 400.775C768.377 403.128 771.7 405.425 775.082 407.661L776.737 405.159C780.059 407.357 783.438 409.497 786.873 411.576L785.319 414.143C788.76 416.226 792.256 418.249 795.808 420.21L797.258 417.584C799.005 418.548 800.765 419.498 802.539 420.432C804.313 421.366 806.092 422.28 807.876 423.174L806.532 425.856C810.146 427.667 813.781 429.398 817.437 431.049L818.672 428.315C822.316 429.961 825.981 431.528 829.663 433.015L828.539 435.797C832.288 437.311 836.056 438.744 839.839 440.096L840.849 437.271C844.616 438.618 848.399 439.884 852.196 441.069L851.302 443.933C855.158 445.137 859.027 446.259 862.908 447.3L863.685 444.402C867.545 445.438 871.417 446.392 875.298 447.265L874.639 450.192C878.576 451.079 882.523 451.883 886.477 452.606L887.016 449.655C890.945 450.373 894.881 451.01 898.821 451.567L898.401 454.538C902.398 455.102 906.398 455.585 910.401 455.987L910.701 453.002C914.675 453.4 918.651 453.718 922.628 453.956L922.449 456.951C926.475 457.192 930.501 457.351 934.524 457.43L934.582 454.43C938.574 454.508 942.563 454.506 946.546 454.424L946.607 457.424C950.638 457.341 954.664 457.178 958.681 456.935L958.5 453.941C962.483 453.7 966.459 453.379 970.425 452.98L970.725 455.965C974.735 455.562 978.735 455.079 982.722 454.517L982.303 451.547C986.255 450.99 990.193 450.355 994.117 449.643L994.653 452.594C998.618 451.874 1002.57 451.076 1006.5 450.2L1005.85 447.272C1009.74 446.404 1013.61 445.459 1017.47 444.438L1018.24 447.338C1022.13 446.307 1026.01 445.199 1029.86 444.014L1028.97 441.147C1032.79 439.974 1036.57 438.726 1040.34 437.403L1041.33 440.233C1045.13 438.897 1048.91 437.486 1052.65 436L1051.55 433.211C1055.25 431.74 1058.93 430.196 1062.58 428.578L1063.79 431.32C1067.47 429.688 1071.12 427.982 1074.74 426.203L1073.42 423.511C1076.99 421.751 1080.54 419.919 1084.04 418.016L1085.47 420.653C1089.01 418.733 1092.51 416.742 1095.98 414.679L1094.44 412.101C1097.87 410.062 1101.25 407.953 1104.6 405.774L1106.23 408.288C1109.6 406.092 1112.94 403.826 1116.22 401.49L1114.49 399.044C1117.73 396.737 1120.94 394.362 1124.1 391.92L1125.93 394.293C1129.12 391.833 1132.25 389.305 1135.34 386.71L1133.42 384.413C1136.46 381.853 1139.46 379.228 1142.41 376.537L1144.44 378.754C1147.41 376.046 1150.33 373.273 1153.2 370.435L1151.09 368.302C1153.91 365.504 1156.69 362.643 1159.42 359.719L1161.61 361.764C1164.35 358.824 1167.04 355.821 1169.67 352.756L1167.39 350.802C1169.98 347.784 1172.52 344.704 1174.99 341.564L1177.35 343.423C1179.84 340.27 1182.27 337.057 1184.65 333.784L1182.22 332.023C1184.55 328.808 1186.82 325.536 1189.04 322.206L1191.54 323.867C1193.76 320.527 1195.92 317.13 1198.02 313.677L1195.46 312.118C1196.49 310.415 1197.51 308.699 1198.52 306.969C1199.4 305.433 1200.26 303.893 1201.12 302.35L1203.74 303.804Z" stroke="white" stroke-width="6" stroke-dasharray="12 12"/>
</svg>
