<svg width="1075" height="664" viewBox="0 0 1075 664" fill="none" xmlns="http://www.w3.org/2000/svg">
<path d="M-200.773 337.003C-87.3535 450.423 97.4631 454.363 215.202 346.007C231.195 331.118 245.532 315.126 257.386 297.753C285.505 258.043 330.457 233.512 379.004 230.223C499.543 221.723 617.307 171.845 708.848 80.3045C909.025 -119.872 910.265 -446.746 711.572 -648.196C509.844 -852.682 180.487 -853.925 -22.1717 -651.267C-22.1717 -651.267 -22.1717 -651.267 -22.4474 -650.991C-31.2707 -642.168 -45.0618 -639.967 -55.8227 -646.868C-213.371 -745.962 -424.383 -725.364 -559.486 -584.742C-711.408 -426.748 -707.714 -173.247 -551.246 -18.9838C-496.33 34.8291 -429.837 69.8895 -360.042 86.1939C-321.144 95.3133 -292.442 127.323 -286.633 166.771C-276.952 228.84 -248.79 288.986 -200.773 337.003Z" fill="#F2A74C"/>
</svg>
