<svg width="492" height="485" viewBox="0 0 492 485" fill="none" xmlns="http://www.w3.org/2000/svg">
<circle cx="281" cy="234" r="194" stroke="#F2A74C" stroke-opacity="0.5" stroke-width="34"/>
<path d="M235.531 2.42188V17.6797H228.266C224.253 17.6797 221 20.9325 221 24.9453C221 28.9581 224.253 32.2109 228.266 32.2109H235.531V47.4688H250.789V39.4766C250.789 35.4638 254.042 32.2109 258.055 32.2109C262.067 32.2109 265.32 35.4638 265.32 39.4766V47.4688H280.578V2.42188H235.531Z" fill="#BB99FF"/>
<path d="M206.469 61.2734H198.477C194.464 61.2734 191.211 58.0206 191.211 54.0078C191.211 49.995 194.464 46.7422 198.477 46.7422H206.469V31.4844H191.211V24.2188C191.211 20.2059 187.958 16.9531 183.945 16.9531C179.933 16.9531 176.68 20.2059 176.68 24.2188V31.4844H161.422V76.5312H206.469V61.2734Z" fill="#CCCCFF"/>
<path d="M251.516 76.5312H236.258V69.2656C236.258 65.2528 233.005 62 228.992 62C224.979 62 221.727 65.2528 221.727 69.2656V76.5312H206.469V91.7891H214.461C218.474 91.7891 221.727 95.0419 221.727 99.0547C221.727 103.067 218.474 106.32 214.461 106.32H206.469V121.578H251.516L251.516 76.5312Z" fill="#CCCCFF"/>
<path d="M214.461 106.32C218.474 106.32 221.727 103.067 221.727 99.0547C221.727 95.0419 218.474 91.7891 214.461 91.7891H206.469V76.5312H161.422V121.578H206.469V106.32H214.461Z" fill="white"/>
<path d="M161.422 124H251.516C252.853 124 253.938 122.916 253.938 121.578L253.938 76.5312C253.938 75.889 253.682 75.2728 253.228 74.8187C252.774 74.3646 252.158 74.1094 251.516 74.1094H238.68V69.2656C238.68 63.9239 234.334 59.5781 228.992 59.5781C223.65 59.5781 219.305 63.9239 219.305 69.2656V74.1094H208.891V61.2734C208.891 59.9358 207.806 58.8516 206.469 58.8516H198.477C195.806 58.8516 193.633 56.6787 193.633 54.0078C193.633 51.337 195.806 49.1641 198.477 49.1641H206.469C207.806 49.1641 208.891 48.0798 208.891 46.7422V31.4844C208.891 30.1468 207.806 29.0625 206.469 29.0625H193.633V24.2188C193.633 18.8771 189.287 14.5312 183.945 14.5312C178.604 14.5312 174.258 18.8771 174.258 24.2188V29.0625H161.422C160.085 29.0625 159 30.1468 159 31.4844V121.578C159 122.916 160.085 124 161.422 124ZM163.844 78.9531H204.047V91.7891C204.047 93.1267 205.131 94.2109 206.469 94.2109H214.461C217.132 94.2109 219.305 96.3838 219.305 99.0547C219.305 101.726 217.132 103.898 214.461 103.898H206.469C205.131 103.898 204.047 104.983 204.047 106.32V119.156H163.844V78.9531ZM221.727 78.9531C223.064 78.9531 224.148 77.8689 224.148 76.5312V69.2656C224.148 66.5948 226.321 64.4219 228.992 64.4219C231.663 64.4219 233.836 66.5948 233.836 69.2656V76.5312C233.836 77.8689 234.92 78.9531 236.258 78.9531H249.094L249.094 119.156H208.891V108.742H214.461C219.803 108.742 224.148 104.396 224.148 99.0547C224.148 93.713 219.803 89.3672 214.461 89.3672H208.891V78.9531H221.727ZM176.68 33.9062C178.017 33.9062 179.102 32.822 179.102 31.4844V24.2188C179.102 21.5479 181.274 19.375 183.945 19.375C186.616 19.375 188.789 21.5479 188.789 24.2188V31.4844C188.789 32.822 189.874 33.9062 191.211 33.9062H204.047V44.3203H198.477C193.135 44.3203 188.789 48.6661 188.789 54.0078C188.789 59.3495 193.135 63.6953 198.477 63.6953H204.047V74.1094H163.844V33.9062H176.68Z" fill="#B578D3"/>
<path d="M280.578 0H235.531C234.194 0 233.109 1.08427 233.109 2.42188V15.2578H228.266C222.924 15.2578 218.578 19.6036 218.578 24.9453C218.578 30.287 222.924 34.6328 228.266 34.6328H233.109V47.4688C233.109 48.8064 234.194 49.8906 235.531 49.8906H250.789C252.126 49.8906 253.211 48.8064 253.211 47.4688V39.4766C253.211 36.8057 255.384 34.6328 258.055 34.6328C260.726 34.6328 262.898 36.8057 262.898 39.4766V47.4688C262.898 48.8064 263.983 49.8906 265.32 49.8906H280.578C281.915 49.8906 283 48.8064 283 47.4688V2.42188C283 1.08427 281.915 0 280.578 0ZM278.156 45.0469H267.742V39.4766C267.742 34.1349 263.396 29.7891 258.055 29.7891C252.713 29.7891 248.367 34.1349 248.367 39.4766V45.0469H237.953V32.2109C237.953 30.8733 236.869 29.7891 235.531 29.7891H228.266C225.595 29.7891 223.422 27.6162 223.422 24.9453C223.422 22.2745 225.595 20.1016 228.266 20.1016H235.531C236.869 20.1016 237.953 19.0173 237.953 17.6797V4.84375H278.156V45.0469Z" fill="#B578D3"/>
<path d="M96 353.5C133.279 353.5 163.5 323.279 163.5 286C163.5 248.721 133.279 218.5 96 218.5C58.7208 218.5 28.5 248.721 28.5 286C28.5 323.279 58.7208 353.5 96 353.5Z" fill="#CCEEFF"/>
<path d="M32.7354 359.39C36.8775 359.39 40.2354 356.032 40.2354 351.89C40.2354 347.748 36.8775 344.39 32.7354 344.39C28.5932 344.39 25.2354 347.748 25.2354 351.89C25.2354 356.032 28.5932 359.39 32.7354 359.39Z" fill="#99DDFF"/>
<path d="M157.39 227.61C161.532 227.61 164.89 224.252 164.89 220.11C164.89 215.968 161.532 212.61 157.39 212.61C153.248 212.61 149.89 215.968 149.89 220.11C149.89 224.252 153.248 227.61 157.39 227.61Z" fill="#99DDFF"/>
<path d="M177.462 242.574C175.598 243.476 174.818 245.719 175.719 247.583C181.546 259.623 184.5 272.548 184.5 286C184.5 334.799 144.799 374.5 96 374.5C76.8716 374.5 58.1483 368.215 42.8843 356.74C44.8778 352.558 44.148 347.392 40.6901 343.935C36.3038 339.549 29.1668 339.549 24.78 343.935C20.3936 348.321 20.3936 355.458 24.78 359.845C28.1734 363.238 33.2858 364.053 37.5128 362.075C54.2265 374.94 74.8853 382 96 382C148.935 382 192 338.935 192 286C192 271.407 188.794 257.383 182.471 244.316C181.569 242.452 179.327 241.672 177.462 242.574ZM30.084 354.541C28.6185 353.076 28.6181 350.704 30.084 349.238C31.5491 347.772 33.9214 347.772 35.3873 349.238C36.8528 350.703 36.8531 353.075 35.3873 354.541C33.9218 356.007 31.5495 356.007 30.084 354.541Z" fill="#80AAFF"/>
<path d="M13.5938 327.612C15.4777 326.752 16.3073 324.527 15.4466 322.643C10.1734 311.1 7.5 298.771 7.5 286C7.5 237.201 47.2009 197.5 96 197.5C114.828 197.5 132.643 203.285 147.777 214.267C145.147 218.596 145.697 224.328 149.435 228.065C153.821 232.452 160.958 232.452 165.345 228.065C169.731 223.679 169.731 216.542 165.345 212.155C162.241 209.051 157.76 208.147 153.851 209.436C137.199 196.82 117.024 190 96 190C43.0654 190 0 233.065 0 286C0 299.854 2.90175 313.231 8.62463 325.759C9.48075 327.634 11.7008 328.477 13.5938 327.612ZM160.041 217.459C161.507 218.924 161.507 221.296 160.041 222.762C158.576 224.228 156.204 224.228 154.738 222.762C153.272 221.297 153.272 218.925 154.738 217.459C156.203 215.993 158.576 215.993 160.041 217.459Z" fill="#80AAFF"/>
<path d="M96 214.75C59.3228 214.75 24.75 243.882 24.75 286C24.75 325.012 56.4371 357.25 96 357.25C135.555 357.25 167.25 325.031 167.25 286C167.25 246.988 135.563 214.75 96 214.75ZM32.25 286C32.25 279.477 33.2366 273.181 35.0655 267.25L59.7776 267.246C58.9354 273.282 58.5 279.58 58.5 286C58.5 292.42 58.9354 298.714 59.7776 304.75H35.0655C33.2366 298.819 32.25 292.523 32.25 286ZM66 286C66 279.508 66.4852 273.205 67.3804 267.25H92.25V304.75H67.3804C66.4852 298.795 66 292.492 66 286ZM123.236 259.75H99.75V222.771C110.07 225.648 118.94 240.188 123.236 259.75ZM92.25 222.771V259.75H68.7637C73.0601 240.188 81.93 225.648 92.25 222.771ZM92.25 312.25V349.229C81.93 346.352 73.0601 331.811 68.7637 312.25H92.25ZM99.75 349.229V312.246L123.236 312.25C118.94 331.812 110.07 346.352 99.75 349.229ZM99.75 304.75V267.25H124.62C125.515 273.205 126 279.508 126 286C126 292.492 125.515 298.795 124.62 304.75H99.75ZM132.222 267.25H156.935C158.763 273.181 159.75 279.477 159.75 286C159.75 292.523 158.763 298.819 156.935 304.75H132.222C133.065 298.714 133.5 292.42 133.5 286C133.5 279.58 133.065 273.286 132.222 267.25ZM154.092 259.75H130.937C128.511 247.852 123.822 234.703 116.071 225.49C132.995 231.118 146.792 243.658 154.092 259.75ZM75.9285 225.49C68.1791 234.702 63.4894 247.849 61.0624 259.75H37.908C45.2085 243.658 59.0047 231.118 75.9285 225.49ZM37.9084 312.25H61.0628C63.489 324.148 68.1784 337.297 75.9289 346.51C59.0048 340.882 45.2085 328.342 37.9084 312.25ZM116.071 346.51C123.824 337.294 128.512 324.143 130.938 312.246H154.092C146.791 328.342 132.995 340.882 116.071 346.51Z" fill="#80AAFF"/>
<path d="M289.953 421.547H304.484V468.047H289.953V421.547Z" fill="#FFCCCC"/>
<path d="M319.742 436.078H335V468.047H319.742V436.078Z" fill="#FFCCCC"/>
<path d="M350.258 421.547H364.789V468.047H350.258V421.547Z" fill="#FFCCCC"/>
<path d="M379.32 392.484H394.578V468.047H379.32V392.484Z" fill="#FFCCCC"/>
<path d="M297.219 407.016C301.231 407.016 304.484 403.763 304.484 399.75C304.484 395.737 301.231 392.484 297.219 392.484C293.206 392.484 289.953 395.737 289.953 399.75C289.953 403.763 293.206 407.016 297.219 407.016Z" fill="white"/>
<path d="M357.523 407.016C361.536 407.016 364.789 403.763 364.789 399.75C364.789 395.737 361.536 392.484 357.523 392.484C353.511 392.484 350.258 395.737 350.258 399.75C350.258 403.763 353.511 407.016 357.523 407.016Z" fill="white"/>
<path d="M327.008 421.547C331.021 421.547 334.273 418.294 334.273 414.281C334.273 410.269 331.021 407.016 327.008 407.016C322.995 407.016 319.742 410.269 319.742 414.281C319.742 418.294 322.995 421.547 327.008 421.547Z" fill="#FF99AD"/>
<path d="M387.312 377.953C391.325 377.953 394.578 374.7 394.578 370.688C394.578 366.675 391.325 363.422 387.312 363.422C383.3 363.422 380.047 366.675 380.047 370.688C380.047 374.7 383.3 377.953 387.312 377.953Z" fill="#FF99AD"/>
<path d="M394.578 480.156H277.844V363.422C277.844 362.084 276.759 361 275.422 361C274.084 361 273 362.084 273 363.422V482.578C273 483.915 274.084 485 275.422 485H394.578C395.915 485 397 483.915 397 482.578C397 481.241 395.915 480.156 394.578 480.156Z" fill="#FF6684"/>
<path d="M289.953 470.469H304.484C305.822 470.469 306.906 469.384 306.906 468.047V421.547C306.906 420.209 305.822 419.125 304.484 419.125H289.953C288.616 419.125 287.531 420.209 287.531 421.547V468.047C287.531 469.384 288.616 470.469 289.953 470.469ZM292.375 423.969H302.062V465.625H292.375V423.969Z" fill="#FF6684"/>
<path d="M335 470.469C336.337 470.469 337.422 469.384 337.422 468.047V436.078C337.422 434.741 336.337 433.656 335 433.656H319.742C318.405 433.656 317.32 434.741 317.32 436.078V468.047C317.32 469.384 318.405 470.469 319.742 470.469H335ZM322.164 438.5H332.578V465.625H322.164V438.5Z" fill="#FF6684"/>
<path d="M364.789 470.469C366.126 470.469 367.211 469.384 367.211 468.047V421.547C367.211 420.209 366.126 419.125 364.789 419.125H350.258C348.92 419.125 347.836 420.209 347.836 421.547V468.047C347.836 469.384 348.92 470.469 350.258 470.469H364.789ZM352.68 423.969H362.367V465.625H352.68V423.969Z" fill="#FF6684"/>
<path d="M394.578 390.062H379.32C377.983 390.062 376.898 391.147 376.898 392.484V468.047C376.898 469.384 377.983 470.469 379.32 470.469H394.578C395.915 470.469 397 469.384 397 468.047V392.484C397 391.147 395.915 390.062 394.578 390.062ZM392.156 465.625H381.742V394.906H392.156V465.625Z" fill="#FF6684"/>
<path d="M387.312 361C381.971 361 377.625 365.346 377.625 370.688C377.625 372.467 378.109 374.134 378.95 375.568L362.476 391.428C361.025 390.562 359.332 390.062 357.523 390.062C352.182 390.062 347.836 394.408 347.836 399.75C347.836 400.42 347.904 401.074 348.034 401.706L334.355 407.978C332.577 405.909 329.944 404.594 327.008 404.594C324.084 404.594 321.461 405.897 319.683 407.952L306.699 401.741C306.834 401.098 306.906 400.432 306.906 399.75C306.906 394.408 302.56 390.062 297.219 390.062C291.877 390.062 287.531 394.408 287.531 399.75C287.531 405.091 291.877 409.437 297.219 409.437C300.142 409.437 302.766 408.134 304.543 406.079L317.527 412.29C317.392 412.933 317.32 413.599 317.32 414.281C317.32 419.623 321.666 423.969 327.008 423.969C332.349 423.969 336.695 419.623 336.695 414.281C336.695 413.611 336.627 412.957 336.496 412.325L350.176 406.053C351.954 408.123 354.587 409.438 357.523 409.438C362.865 409.438 367.211 405.092 367.211 399.75C367.211 397.971 366.726 396.303 365.886 394.869L382.36 379.009C383.81 379.875 385.504 380.375 387.312 380.375C392.654 380.375 397 376.029 397 370.688C397 365.346 392.654 361 387.312 361V361ZM297.219 404.594C294.548 404.594 292.375 402.421 292.375 399.75C292.375 397.079 294.548 394.906 297.219 394.906C299.889 394.906 302.062 397.079 302.062 399.75C302.062 402.421 299.889 404.594 297.219 404.594ZM327.008 419.125C324.337 419.125 322.164 416.952 322.164 414.281C322.164 411.61 324.337 409.438 327.008 409.438C329.678 409.438 331.851 411.61 331.851 414.281C331.851 416.952 329.678 419.125 327.008 419.125ZM357.523 404.594C354.852 404.594 352.679 402.421 352.679 399.75C352.679 397.079 354.852 394.906 357.523 394.906C360.194 394.906 362.367 397.079 362.367 399.75C362.367 402.421 360.194 404.594 357.523 404.594ZM387.312 375.531C384.641 375.531 382.468 373.358 382.468 370.688C382.468 368.017 384.641 365.844 387.312 365.844C389.983 365.844 392.156 368.017 392.156 370.688C392.156 373.358 389.983 375.531 387.312 375.531Z" fill="#FF6684"/>
</svg>
