<svg width="68" height="68" viewBox="0 0 68 68" fill="none" xmlns="http://www.w3.org/2000/svg">
<g clip-path="url(#clip0)">
<path d="M53.2312 9.29688C49.6187 9.29688 46.1125 8.57969 42.8187 7.22487C39.5516 5.87031 36.55 3.87813 34 1.32812C28.9 6.42813 21.9672 9.29688 14.7687 9.29688H10.0938V32.6984C10.0938 47.7594 19.7359 61.9172 34 66.6719C48.2641 61.9172 57.9062 47.7594 57.9062 32.6984V9.29688H53.2312Z" fill="#FFE6B3"/>
<path d="M33.58 67.9318C33.7163 67.9773 33.8582 68 34 68C34.1418 68 34.2837 67.9773 34.42 67.9318C49.0304 63.0617 59.2344 48.5732 59.2344 32.6984V9.29684C59.2344 8.56332 58.6398 7.96872 57.9062 7.96872H53.2312C46.5305 7.96872 39.9103 5.36001 34.9391 0.388975C34.4205 -0.129658 33.5795 -0.129658 33.0609 0.388975C28.2438 5.20595 21.5766 7.96872 14.7687 7.96872H10.0938C9.36023 7.96872 8.76562 8.56332 8.76562 9.29684V32.6984C8.76562 48.5732 18.9697 63.0617 33.58 67.9318ZM11.4219 10.625H14.7687C21.9412 10.625 28.8022 7.91466 33.9999 3.16515C39.4251 8.12451 46.3618 10.625 53.2312 10.625H56.5781V32.6984C56.5781 47.2929 47.316 60.619 34 65.2685C20.684 60.619 11.4219 47.293 11.4219 32.6984V10.625Z" fill="#FFA96B"/>
<path d="M34 35.3281C35.4647 35.3281 36.6562 36.5197 36.6562 37.9844C36.6562 39.449 35.4647 40.6406 34 40.6406C32.9242 40.6406 31.9613 39.9991 31.5471 39.0064C31.2646 38.3294 30.4864 38.0096 29.8099 38.2922C29.133 38.5747 28.8133 39.3525 29.0958 40.0294C29.7485 41.5936 31.0834 42.7182 32.6719 43.1262V44.625C32.6719 45.3585 33.2665 45.9531 34 45.9531C34.7335 45.9531 35.3281 45.3585 35.3281 44.625V43.1287C37.6169 42.5375 39.3125 40.4552 39.3125 37.9844C39.3125 35.0551 36.9293 32.6719 34 32.6719C32.5353 32.6719 31.3438 31.4803 31.3438 30.0156C31.3438 28.551 32.5353 27.3594 34 27.3594C35.0758 27.3594 36.0387 28.0009 36.4529 28.9936C36.7354 29.6706 37.5133 29.9904 38.1901 29.7078C38.867 29.4253 39.1867 28.6475 38.9042 27.9706C38.2515 26.4064 36.9166 25.2818 35.3281 24.8738V23.375C35.3281 22.6415 34.7335 22.0469 34 22.0469C33.2665 22.0469 32.6719 22.6415 32.6719 23.375V24.8713C30.3831 25.4625 28.6875 27.5448 28.6875 30.0156C28.6875 32.9449 31.0707 35.3281 34 35.3281Z" fill="#FFA96B"/>
<path d="M33.4577 59.3422C33.6302 59.4195 33.8151 59.458 34.0001 59.458C34.1851 59.458 34.37 59.4193 34.5425 59.3422C44.5453 54.8668 51.2657 44.1593 51.2657 32.6979V17.1191C51.2657 16.433 50.7431 15.8599 50.0601 15.7966C44.5167 15.2835 39.3587 13.4811 34.7294 10.4398C34.2867 10.149 33.7136 10.149 33.271 10.4398C28.6417 13.4812 23.4836 15.2835 17.9403 15.7966C17.2571 15.8598 16.7346 16.433 16.7346 17.1191V32.6979C16.7345 44.1593 23.4551 54.8668 33.4577 59.3422ZM34.0001 16.2138C37.7262 18.3212 41.7387 19.7864 45.9532 20.5791V32.6979C45.9532 41.3819 41.176 49.7227 34.0001 53.6841C26.8243 49.7227 22.047 41.3821 22.047 32.6979V20.5791C26.2617 19.7864 30.2741 18.3212 34.0001 16.2138Z" fill="white"/>
</g>
<defs>
<clipPath id="clip0">
<rect width="68" height="68" fill="white"/>
</clipPath>
</defs>
</svg>
