<svg width="68" height="68" viewBox="0 0 68 68" fill="none" xmlns="http://www.w3.org/2000/svg">
<path d="M41.9688 1.32812V9.69531H37.9844C35.7838 9.69531 34 11.4791 34 13.6797C34 15.8803 35.7838 17.6641 37.9844 17.6641H41.9688V26.0312H50.3359V21.6484C50.3359 19.4479 52.1197 17.6641 54.3203 17.6641C56.5209 17.6641 58.3047 19.4479 58.3047 21.6484V26.0312H66.6719V1.32812H41.9688Z" fill="#BB99FF"/>
<path d="M26.0312 33.6016H21.6484C19.4479 33.6016 17.6641 31.8178 17.6641 29.6172C17.6641 27.4166 19.4479 25.6328 21.6484 25.6328H26.0312V17.2656H17.6641V13.2812C17.6641 11.0807 15.8803 9.29688 13.6797 9.29688C11.4791 9.29688 9.69531 11.0807 9.69531 13.2812V17.2656H1.32812V41.9688H26.0312V33.6016Z" fill="#CCCCFF"/>
<path d="M50.7345 41.9688H42.3672V37.9844C42.3672 35.7838 40.5833 34 38.3828 34C36.1822 34 34.3984 35.7838 34.3984 37.9844V41.9688H26.0312V50.3359H30.4141C32.6146 50.3359 34.3984 52.1197 34.3984 54.3203C34.3984 56.5208 32.6146 58.3047 30.4141 58.3047H26.0312V66.6719H50.7344L50.7345 41.9688Z" fill="#CCCCFF"/>
<path d="M30.4141 58.3047C32.6146 58.3047 34.3984 56.5208 34.3984 54.3203C34.3984 52.1197 32.6146 50.3359 30.4141 50.3359H26.0312V41.9688H1.32812V66.6719H26.0312V58.3047H30.4141Z" fill="white"/>
<path d="M1.32812 68H50.7344C51.4678 68 52.0625 67.4054 52.0625 66.6719L52.0626 41.9688C52.0626 41.6165 51.9226 41.2787 51.6736 41.0296C51.4245 40.7806 51.0867 40.6406 50.7345 40.6406H43.6953V37.9844C43.6953 35.0551 41.3121 32.6719 38.3828 32.6719C35.4535 32.6719 33.0703 35.0551 33.0703 37.9844V40.6406H27.3594V33.6016C27.3594 32.868 26.7646 32.2734 26.0312 32.2734H21.6484C20.1838 32.2734 18.9922 31.0818 18.9922 29.6172C18.9922 28.1525 20.1838 26.9609 21.6484 26.9609H26.0312C26.7646 26.9609 27.3594 26.3663 27.3594 25.6328V17.2656C27.3594 16.5321 26.7646 15.9375 26.0312 15.9375H18.9922V13.2812C18.9922 10.3519 16.609 7.96875 13.6797 7.96875C10.7504 7.96875 8.36719 10.3519 8.36719 13.2812V15.9375H1.32812C0.594734 15.9375 0 16.5321 0 17.2656V66.6719C0 67.4054 0.594734 68 1.32812 68ZM2.65625 43.2969H24.7031V50.3359C24.7031 51.0695 25.2979 51.6641 26.0312 51.6641H30.4141C31.8787 51.6641 33.0703 52.8557 33.0703 54.3203C33.0703 55.785 31.8787 56.9766 30.4141 56.9766H26.0312C25.2979 56.9766 24.7031 57.5712 24.7031 58.3047V65.3438H2.65625V43.2969ZM34.3984 43.2969C35.1318 43.2969 35.7266 42.7023 35.7266 41.9688V37.9844C35.7266 36.5197 36.9182 35.3281 38.3828 35.3281C39.8475 35.3281 41.0391 36.5197 41.0391 37.9844V41.9688C41.0391 42.7023 41.6338 43.2969 42.3672 43.2969H49.4064L49.4062 65.3438H27.3594V59.6328H30.4141C33.3434 59.6328 35.7266 57.2496 35.7266 54.3203C35.7266 51.391 33.3434 49.0078 30.4141 49.0078H27.3594V43.2969H34.3984ZM9.69531 18.5938C10.4287 18.5938 11.0234 17.9991 11.0234 17.2656V13.2812C11.0234 11.8166 12.215 10.625 13.6797 10.625C15.1443 10.625 16.3359 11.8166 16.3359 13.2812V17.2656C16.3359 17.9991 16.9307 18.5938 17.6641 18.5938H24.7031V24.3047H21.6484C18.7191 24.3047 16.3359 26.6879 16.3359 29.6172C16.3359 32.5465 18.7191 34.9297 21.6484 34.9297H24.7031V40.6406H2.65625V18.5938H9.69531Z" fill="#B578D3"/>
<path d="M66.6719 0H41.9688C41.2354 0 40.6406 0.594602 40.6406 1.32812V8.36719H37.9844C35.0551 8.36719 32.6719 10.7504 32.6719 13.6797C32.6719 16.609 35.0551 18.9922 37.9844 18.9922H40.6406V26.0312C40.6406 26.7648 41.2354 27.3594 41.9688 27.3594H50.3359C51.0693 27.3594 51.6641 26.7648 51.6641 26.0312V21.6484C51.6641 20.1838 52.8557 18.9922 54.3203 18.9922C55.785 18.9922 56.9766 20.1838 56.9766 21.6484V26.0312C56.9766 26.7648 57.5713 27.3594 58.3047 27.3594H66.6719C67.4053 27.3594 68 26.7648 68 26.0312V1.32812C68 0.594602 67.4053 0 66.6719 0ZM65.3438 24.7031H59.6328V21.6484C59.6328 18.7191 57.2496 16.3359 54.3203 16.3359C51.391 16.3359 49.0078 18.7191 49.0078 21.6484V24.7031H43.2969V17.6641C43.2969 16.9305 42.7021 16.3359 41.9688 16.3359H37.9844C36.5197 16.3359 35.3281 15.1443 35.3281 13.6797C35.3281 12.215 36.5197 11.0234 37.9844 11.0234H41.9688C42.7021 11.0234 43.2969 10.4288 43.2969 9.69531V2.65625H65.3438V24.7031Z" fill="#B578D3"/>
</svg>
