<svg width="68" height="68" viewBox="0 0 68 68" fill="none" xmlns="http://www.w3.org/2000/svg">
<g clip-path="url(#clip0)">
<path d="M53.9219 49.8577C32.5286 48.5464 15.4563 31.2767 14.1579 10.0938H6.1095C7.46418 35.8063 28.2095 56.4188 53.922 57.7734V49.8577" fill="white"/>
<path d="M22.7641 22.8969L18.3016 25.8719C15.9641 21.0641 14.503 15.725 14.1578 10.0938H19.4969C19.8157 14.6359 20.958 18.9391 22.7641 22.8969Z" fill="#FF99AD"/>
<path d="M53.9219 44.5187V49.8577C48.2907 49.5125 42.9516 48.0514 38.1438 45.7139L41.1188 41.2514C45.0766 43.0577 49.3797 44.2001 53.9219 44.5187Z" fill="#FF99AD"/>
<path d="M45.9531 1.32812C37.1511 1.32812 30.0156 8.46361 30.0156 17.2656C30.0156 19.1126 30.3336 20.8833 30.9152 22.5302C32.0883 25.8524 31.8615 29.5113 30.2859 32.6626L30.0156 33.2031L30.5562 32.9329C33.7083 31.3568 37.3655 31.1301 40.6886 32.3036C42.3354 32.8852 44.1061 33.2031 45.9531 33.2031C54.7551 33.2031 61.8906 26.0676 61.8906 17.2656C61.8906 8.46361 54.7553 1.32812 45.9531 1.32812Z" fill="#FFCCCC"/>
<path d="M53.9217 59.1016H56.5781C58.7751 59.1016 60.5625 60.889 60.5625 63.086V66.6719C60.5625 67.4054 61.1572 68 61.8906 68C62.624 68 63.2188 67.4054 63.2188 66.6719V63.086C63.2188 59.4243 60.2398 56.4453 56.5781 56.4453H55.25C55.25 54.7368 55.25 46.2371 55.25 44.5188C55.25 43.8214 54.7105 43.2427 54.0149 43.1938C49.7485 42.8945 45.5951 41.8345 41.6701 40.0433C41.0771 39.7725 40.3753 39.9723 40.0136 40.5147L37.6897 44.0008C30.1353 40.0948 23.9207 33.8802 20.0147 26.3258L23.5008 24.0018C24.0432 23.6401 24.2429 22.9383 23.9724 22.3453C22.1812 18.4202 21.121 14.2669 20.8217 10.0007C20.7729 9.30486 20.1941 8.7655 19.4967 8.7655C15.0311 8.7655 10.5849 8.7655 6.10925 8.7655C5.74495 8.7655 5.39658 8.91518 5.1457 9.17948C4.89495 9.44391 4.76373 9.79958 4.78298 10.1635C6.30329 39.015 31.3341 59.1016 53.9217 59.1016ZM41.6055 42.9156C45.1294 44.4024 48.8158 45.3489 52.5938 45.7369V48.4215C48.2687 48.0072 44.0809 46.9137 40.1086 45.1611L41.6055 42.9156ZM18.2787 11.4219C18.6667 15.1997 19.6132 18.8861 21.1001 22.41L18.8546 23.9071C17.102 19.9348 16.0083 15.7471 15.5942 11.4219H18.2787ZM12.9284 11.4219C14.8225 32.4953 31.7685 49.2153 52.5938 51.0873V56.3541C28.5045 54.4137 9.46967 35.4344 7.52902 11.4219H12.9284Z" fill="#FF6684"/>
<path d="M45.9531 18.5938C47.4178 18.5938 48.6094 19.7853 48.6094 21.25C48.6094 22.7147 47.4178 23.9062 45.9531 23.9062C44.8773 23.9062 43.9145 23.2648 43.5002 22.272C43.2177 21.595 42.4404 21.2751 41.763 21.5579C41.0861 21.8404 40.7664 22.6181 41.0489 23.295C41.7017 24.8592 43.0364 25.9838 44.625 26.392V27.8906C44.625 28.6241 45.2197 29.2188 45.9531 29.2188C46.6865 29.2188 47.2812 28.6241 47.2812 27.8906V26.3944C49.57 25.8031 51.2656 23.7208 51.2656 21.25C51.2656 18.3207 48.8824 15.9375 45.9531 15.9375C44.4885 15.9375 43.2969 14.7459 43.2969 13.2812C43.2969 11.8166 44.4885 10.625 45.9531 10.625C47.0289 10.625 47.9918 11.2665 48.406 12.2593C48.6884 12.9362 49.4659 13.2561 50.1432 12.9734C50.8202 12.6909 51.1399 11.9131 50.8574 11.2362C50.2046 9.6722 48.8698 8.54741 47.2812 8.13941V6.64062C47.2812 5.9071 46.6865 5.3125 45.9531 5.3125C45.2197 5.3125 44.625 5.9071 44.625 6.64062V8.13689C42.3362 8.72817 40.6406 10.8104 40.6406 13.2812C40.6406 16.2106 43.0238 18.5938 45.9531 18.5938Z" fill="#FF6684"/>
<path d="M28.8277 32.6092C28.5721 33.1205 28.6724 33.7381 29.0765 34.1422C29.4795 34.5449 30.0964 34.6476 30.6096 34.391C30.8304 34.3287 34.9234 31.6762 40.2464 33.5559C42.0791 34.2031 43.9992 34.5312 45.9531 34.5312C55.4735 34.5312 63.2188 26.7859 63.2188 17.2656C63.2188 7.74536 55.4735 0 45.9531 0C36.4327 0 28.6875 7.74536 28.6875 17.2656C28.6875 19.2196 29.0157 21.1396 29.6629 22.9724C31.535 28.2739 28.8872 32.3985 28.8277 32.6092ZM45.9531 2.65625C54.0087 2.65625 60.5625 9.21002 60.5625 17.2656C60.5625 25.3212 54.0087 31.875 45.9531 31.875C44.3012 31.875 42.6788 31.5978 41.1308 31.0513C38.305 30.0533 35.2454 29.9888 32.4308 30.7879C33.2361 27.952 33.1581 24.8932 32.1676 22.0879C31.6209 20.54 31.3438 18.9175 31.3438 17.2656C31.3438 9.21002 37.8975 2.65625 45.9531 2.65625Z" fill="#FF6684"/>
</g>
<defs>
<clipPath id="clip0">
<rect width="68" height="68" fill="white"/>
</clipPath>
</defs>
</svg>
