<svg width="68" height="68" viewBox="0 0 68 68" fill="none" xmlns="http://www.w3.org/2000/svg">
<path d="M34 57.9062C47.2031 57.9062 57.9062 47.2031 57.9062 34C57.9062 20.7969 47.2031 10.0938 34 10.0938C20.7969 10.0938 10.0938 20.7969 10.0938 34C10.0938 47.2031 20.7969 57.9062 34 57.9062Z" fill="#CCEEFF"/>
<path d="M11.5938 59.9922C13.0608 59.9922 14.25 58.8029 14.25 57.3359C14.25 55.8689 13.0608 54.6797 11.5938 54.6797C10.1267 54.6797 8.9375 55.8689 8.9375 57.3359C8.9375 58.8029 10.1267 59.9922 11.5938 59.9922Z" fill="#99DDFF"/>
<path d="M55.7422 13.3203C57.2092 13.3203 58.3984 12.1311 58.3984 10.6641C58.3984 9.19706 57.2092 8.00781 55.7422 8.00781C54.2752 8.00781 53.0859 9.19706 53.0859 10.6641C53.0859 12.1311 54.2752 13.3203 55.7422 13.3203Z" fill="#99DDFF"/>
<path d="M62.8511 18.62C62.1909 18.9396 61.9146 19.7338 62.234 20.394C64.2975 24.6582 65.3438 29.2357 65.3438 34C65.3438 51.283 51.2831 65.3438 34.0001 65.3438C27.2255 65.3438 20.5943 63.1178 15.1883 59.0538C15.8943 57.5728 15.6358 55.7431 14.4112 54.5186C12.8577 52.9652 10.33 52.9652 8.77634 54.5186C7.22283 56.0721 7.22283 58.5998 8.77634 60.1534C9.97816 61.3553 11.7888 61.6436 13.2859 60.9431C19.2053 65.4995 26.5219 68 34.0001 68C52.7478 68 68.0001 52.7477 68.0001 34C68.0001 28.8317 66.8645 23.8648 64.625 19.2371C64.3056 18.5769 63.5115 18.3006 62.8511 18.62ZM10.6548 58.2749C10.1358 57.756 10.1357 56.9159 10.6548 56.3967C11.1737 55.8777 12.0139 55.8775 12.5331 56.3967C13.0521 56.9156 13.0522 57.7558 12.5331 58.2749C12.014 58.794 11.1739 58.7942 10.6548 58.2749Z" fill="#80AAFF"/>
<path d="M4.81445 48.7377C5.4817 48.433 5.77548 47.645 5.47068 46.9779C3.60307 42.8895 2.65625 38.5231 2.65625 34C2.65625 16.717 16.717 2.65625 34 2.65625C40.6683 2.65625 46.9776 4.70515 52.3378 8.59469C51.4061 10.1276 51.6011 12.1579 52.9247 13.4815C54.4782 15.035 57.0059 15.035 58.5596 13.4815C60.1131 11.928 60.1131 9.40034 58.5596 7.84669C57.4603 6.74741 55.8734 6.42719 54.4889 6.88354C48.5913 2.41546 41.4461 0 34 0C15.2523 0 0 15.2523 0 34C0 38.9066 1.0277 43.6443 3.05455 48.0814C3.35777 48.7454 4.14402 49.0439 4.81445 48.7377ZM56.6812 9.72506C57.2002 10.244 57.2004 11.0841 56.6812 11.6033C56.1623 12.1223 55.3221 12.1225 54.803 11.6033C54.2839 11.0844 54.2838 10.2442 54.803 9.72506C55.322 9.20603 56.1622 9.20576 56.6812 9.72506Z" fill="#80AAFF"/>
<path d="M34 8.76562C21.0101 8.76562 8.76562 19.0833 8.76562 34C8.76562 47.8166 19.9881 59.2344 34 59.2344C48.0091 59.2344 59.2344 47.8235 59.2344 34C59.2344 20.1834 48.0119 8.76562 34 8.76562ZM11.4219 34C11.4219 31.6899 11.7713 29.4598 12.419 27.3594L21.1712 27.358C20.8729 29.4958 20.7188 31.7262 20.7188 34C20.7188 36.2738 20.8729 38.5029 21.1712 40.6406H12.419C11.7713 38.5402 11.4219 36.3101 11.4219 34ZM23.375 34C23.375 31.7008 23.5469 29.4686 23.8639 27.3594H32.6719V40.6406H23.8639C23.5469 38.5314 23.375 36.2992 23.375 34ZM43.6462 24.7031H35.3281V11.6064C38.9831 12.6253 42.1245 17.7751 43.6462 24.7031ZM32.6719 11.6064V24.7031H24.3538C25.8755 17.7751 29.0169 12.6253 32.6719 11.6064ZM32.6719 43.2969V56.3936C29.0169 55.3747 25.8755 50.2248 24.3538 43.2969H32.6719ZM35.3281 56.3936V43.2955L43.6462 43.2969C42.1245 50.2249 38.9831 55.3747 35.3281 56.3936ZM35.3281 40.6406V27.3594H44.1361C44.4533 29.4686 44.625 31.7008 44.625 34C44.625 36.2992 44.4531 38.5314 44.1361 40.6406H35.3281ZM46.8288 27.3594H55.581C56.2286 29.4598 56.5781 31.6899 56.5781 34C56.5781 36.3101 56.2287 38.5402 55.581 40.6406H46.8288C47.1271 38.5029 47.2812 36.2738 47.2812 34C47.2812 31.7262 47.1271 29.4971 46.8288 27.3594ZM54.5741 24.7031H46.3736C45.5143 20.4893 43.8535 15.8323 41.1085 12.5694C47.1025 14.5628 51.9887 19.004 54.5741 24.7031ZM26.8913 12.5694C24.1468 15.8319 22.4858 20.4883 21.6263 24.7031H13.4257C16.0113 19.004 20.8975 14.5628 26.8913 12.5694ZM13.4259 43.2969H21.6264C22.4857 47.5107 24.1465 52.1677 26.8915 55.4306C20.8975 53.4372 16.0113 48.996 13.4259 43.2969ZM41.1087 55.4306C43.8544 52.1668 45.5148 47.509 46.3737 43.2955H54.5742C51.9887 48.996 47.1025 53.4372 41.1087 55.4306Z" fill="#80AAFF"/>
</svg>
