<svg width="68" height="68" viewBox="0 0 68 68" fill="none" xmlns="http://www.w3.org/2000/svg">
<path d="M18.0625 58.3047V66.6719H49.9375V58.3047C49.1688 58.3047 20.6719 58.3047 18.0625 58.3047Z" fill="#CCCCFF"/>
<path d="M18.0625 41.5703V49.9375H49.9375V41.5703H18.0625Z" fill="#CCCCFF"/>
<path d="M34 33.2031C42.802 33.2031 49.9375 26.0677 49.9375 17.2656C49.9375 8.46359 42.802 1.32812 34 1.32812C25.198 1.32812 18.0625 8.46359 18.0625 17.2656C18.0625 26.0677 25.198 33.2031 34 33.2031Z" fill="#CCCCFF"/>
<path d="M26.0312 49.9375H57.9062V58.3047H26.0312V49.9375Z" fill="white"/>
<path d="M6.64062 25.6328L1.32812 33.6016H3.98438V41.5703H9.29688V33.6016H11.9531L6.64062 25.6328Z" fill="#BB99FF"/>
<path d="M61.3594 25.6328L56.0469 33.6016H58.7031V41.5703H64.0156V33.6016H66.6719L61.3594 25.6328Z" fill="#BB99FF"/>
<path d="M34 18.5938C35.4647 18.5938 36.6562 19.7853 36.6562 21.25C36.6562 22.7147 35.4647 23.9062 34 23.9062C32.9242 23.9062 31.9613 23.2648 31.5471 22.272C31.2646 21.595 30.4864 21.2755 29.8099 21.5579C29.133 21.8404 28.8133 22.6181 29.0958 23.295C29.7485 24.8592 31.0834 25.9838 32.6719 26.3918V27.8906C32.6719 28.6241 33.2666 29.2188 34 29.2188C34.7334 29.2188 35.3281 28.6241 35.3281 27.8906V26.3944C37.6169 25.8031 39.3125 23.7208 39.3125 21.25C39.3125 18.3207 36.9293 15.9375 34 15.9375C32.5353 15.9375 31.3438 14.7459 31.3438 13.2812C31.3438 11.8166 32.5353 10.625 34 10.625C35.0758 10.625 36.0387 11.2665 36.4529 12.2593C36.7354 12.9362 37.5128 13.2561 38.1901 12.9734C38.867 12.6909 39.1867 11.9131 38.9042 11.2362C38.2515 9.6722 36.9167 8.54741 35.3281 8.13941V6.64062C35.3281 5.9071 34.7334 5.3125 34 5.3125C33.2666 5.3125 32.6719 5.9071 32.6719 6.64062V8.13689C30.3831 8.72817 28.6875 10.8104 28.6875 13.2812C28.6875 16.2106 31.0707 18.5938 34 18.5938Z" fill="#B578D3"/>
<path d="M34 34.5312C43.5204 34.5312 51.2656 26.7859 51.2656 17.2656C51.2656 7.74536 43.5204 0 34 0C24.4797 0 16.7344 7.74536 16.7344 17.2656C16.7344 26.7859 24.4797 34.5312 34 34.5312ZM34 2.65625C42.0556 2.65625 48.6094 9.21002 48.6094 17.2656C48.6094 25.3212 42.0556 31.875 34 31.875C25.9444 31.875 19.3906 25.3212 19.3906 17.2656C19.3906 9.21002 25.9444 2.65625 34 2.65625Z" fill="#B578D3"/>
<path d="M18.0625 56.9766C17.329 56.9766 16.7344 57.5712 16.7344 58.3047V66.6719C16.7344 67.4054 17.329 68 18.0625 68H49.9375C50.6709 68 51.2656 67.4054 51.2656 66.6719V59.6328H57.9062C58.6396 59.6328 59.2344 59.0382 59.2344 58.3047V49.9375C59.2344 49.204 58.6396 48.6094 57.9062 48.6094H51.2656V41.5703C51.2656 40.8368 50.6709 40.2422 49.9375 40.2422H18.0625C17.329 40.2422 16.7344 40.8368 16.7344 41.5703V49.9375C16.7344 50.671 17.329 51.2656 18.0625 51.2656H24.7031V56.9766H18.0625ZM48.6094 65.3438H19.3906V59.6328H48.6094V65.3438ZM56.5781 56.9766H27.3594V51.2656H56.5781V56.9766ZM19.3906 42.8984H48.6094V48.6094C47.9391 48.6094 19.62 48.6094 19.3906 48.6094V42.8984Z" fill="#B578D3"/>
<path d="M6.64062 24.3047C6.1965 24.3047 5.78185 24.5266 5.53562 24.8961L0.22312 32.8649C-0.0486142 33.2723 -0.0739814 33.7964 0.157112 34.2283C0.388206 34.6601 0.838308 34.9297 1.32812 34.9297H2.65625V41.5703C2.65625 42.3038 3.25085 42.8984 3.98437 42.8984H9.29687C10.0304 42.8984 10.625 42.3038 10.625 41.5703V34.9297H11.9531C12.4429 34.9297 12.893 34.6601 13.1241 34.2283C13.3552 33.7964 13.3299 33.2725 13.0581 32.8649L7.74562 24.8961C7.49939 24.5266 7.08475 24.3047 6.64062 24.3047ZM9.29687 32.2734C8.56335 32.2734 7.96875 32.868 7.96875 33.6016V40.2422H5.3125V33.6016C5.3125 32.868 4.71789 32.2734 3.98437 32.2734H3.80972L6.64062 28.0272L9.47152 32.2734H9.29687Z" fill="#B578D3"/>
<path d="M65.3439 41.5703V34.9297H66.672C67.1619 34.9297 67.6118 34.6601 67.8429 34.2283C68.074 33.7964 68.0488 33.2725 67.777 32.8649L62.4645 24.8961C62.2183 24.5266 61.8035 24.3047 61.3595 24.3047C60.9155 24.3047 60.5008 24.5266 60.2545 24.8961L54.942 32.8649C54.6703 33.2723 54.6451 33.7964 54.8762 34.2283C55.1073 34.6601 55.5574 34.9297 56.047 34.9297H57.3752V41.5703C57.3752 42.3038 57.9699 42.8984 58.7033 42.8984H64.0158C64.7493 42.8984 65.3439 42.3038 65.3439 41.5703ZM62.6877 33.6016V40.2422H60.0314V33.6016C60.0314 32.868 59.4367 32.2734 58.7033 32.2734H58.5288L61.3595 28.0272L64.1904 32.2734H64.0158C63.2824 32.2734 62.6877 32.868 62.6877 33.6016Z" fill="#B578D3"/>
</svg>
