<svg width="68" height="68" viewBox="0 0 68 68" fill="none" xmlns="http://www.w3.org/2000/svg">
<g clip-path="url(#clip0)">
<path d="M49.9375 55.8878V1.32812H10.0938V57.9062H39.3125V66.6719L45.9531 64.0156L52.5938 66.6719V55.8878H49.9375Z" fill="white"/>
<path d="M45.9531 57.9062C52.5547 57.9062 57.9062 52.5547 57.9062 45.9531C57.9062 39.3516 52.5547 34 45.9531 34C39.3516 34 34 39.3516 34 45.9531C34 52.5547 39.3516 57.9062 45.9531 57.9062Z" fill="#CCFFB3"/>
<path d="M10.0938 59.2344H37.9844V66.6719C37.9844 67.1125 38.203 67.5245 38.568 67.7717C38.9329 68.0186 39.3963 68.0689 39.8058 67.905L45.9531 65.4462L52.1005 67.905C52.5119 68.0697 52.9757 68.0173 53.3383 67.7717C53.7031 67.5247 53.9219 67.1127 53.9219 66.6719V56.5714C57.1456 54.1458 59.2344 50.2889 59.2344 45.9531C59.2344 40.5178 55.9519 35.8355 51.2656 33.7819V1.32812C51.2656 0.594602 50.6709 0 49.9375 0H10.0938C9.36036 0 8.76562 0.594602 8.76562 1.32812V57.9062C8.76562 58.6398 9.36036 59.2344 10.0938 59.2344ZM51.2656 64.7101L46.4464 62.7825C46.1296 62.6558 45.7766 62.6558 45.4599 62.7825L40.6406 64.7101V58.1242C42.2684 58.8374 44.0652 59.2342 45.9531 59.2342C47.8411 59.2342 49.6379 58.8374 51.2656 58.1242V64.7101ZM56.5781 45.9531C56.5781 51.8117 51.8117 56.5781 45.9531 56.5781C40.0945 56.5781 35.3281 51.8117 35.3281 45.9531C35.3281 40.0945 40.0945 35.3281 45.9531 35.3281C51.8117 35.3281 56.5781 40.0945 56.5781 45.9531ZM11.4219 2.65625H48.6094V32.939C47.7509 32.764 46.8625 32.6719 45.9531 32.6719C38.6297 32.6719 32.6719 38.6298 32.6719 45.9531C32.6719 50.2889 34.7606 54.1459 37.9844 56.5714V56.5781H11.4219V2.65625Z" fill="#53D0A6"/>
<path d="M40.6406 45.9531C40.6406 48.8824 43.0238 51.2656 45.9531 51.2656C48.8824 51.2656 51.2656 48.8824 51.2656 45.9531C51.2656 43.0238 48.8824 40.6406 45.9531 40.6406C43.0238 40.6406 40.6406 43.0238 40.6406 45.9531Z" fill="white"/>
<path d="M18.0625 11.4219H26.0312C26.7646 11.4219 27.3594 10.8273 27.3594 10.0938C27.3594 9.36023 26.7646 8.76562 26.0312 8.76562H18.0625C17.3291 8.76562 16.7344 9.36023 16.7344 10.0938C16.7344 10.8273 17.3291 11.4219 18.0625 11.4219Z" fill="#53D0A6"/>
<path d="M18.0625 19.3906H41.9688C42.7021 19.3906 43.2969 18.796 43.2969 18.0625C43.2969 17.329 42.7021 16.7344 41.9688 16.7344H18.0625C17.3291 16.7344 16.7344 17.329 16.7344 18.0625C16.7344 18.796 17.3291 19.3906 18.0625 19.3906Z" fill="#53D0A6"/>
<path d="M18.0625 27.3594H41.9688C42.7021 27.3594 43.2969 26.7648 43.2969 26.0312C43.2969 25.2977 42.7021 24.7031 41.9688 24.7031H18.0625C17.3291 24.7031 16.7344 25.2977 16.7344 26.0312C16.7344 26.7648 17.3291 27.3594 18.0625 27.3594Z" fill="#53D0A6"/>
<path d="M28.6875 32.6719H18.0625C17.3291 32.6719 16.7344 33.2665 16.7344 34C16.7344 34.7335 17.3291 35.3281 18.0625 35.3281H28.6875C29.4209 35.3281 30.0156 34.7335 30.0156 34C30.0156 33.2665 29.421 32.6719 28.6875 32.6719Z" fill="#53D0A6"/>
<path d="M26.0312 40.6406H18.0625C17.3291 40.6406 16.7344 41.2352 16.7344 41.9688C16.7344 42.7023 17.3291 43.2969 18.0625 43.2969H26.0312C26.7646 43.2969 27.3594 42.7023 27.3594 41.9688C27.3594 41.2352 26.7648 40.6406 26.0312 40.6406Z" fill="#53D0A6"/>
</g>
<defs>
<clipPath id="clip0">
<rect width="68" height="68" fill="white"/>
</clipPath>
</defs>
</svg>
