<svg width="68" height="68" viewBox="0 0 68 68" fill="none" xmlns="http://www.w3.org/2000/svg">
<path d="M1.32812 17.2656H66.6719V66.6719H1.32812V17.2656Z" fill="#CCFFB3"/>
<path d="M1.32812 1.32812H66.6719V17.2656H1.32812V1.32812Z" fill="white"/>
<path d="M15.4062 36.6562H23.375V44.625H15.4062V36.6562Z" fill="#9AFFBC"/>
<path d="M39.3125 28.6875C37.6365 32.0393 34.5069 34.4299 30.8322 35.1648L23.375 36.6562V44.625L30.832 46.1164C34.5068 46.8513 37.6364 49.2417 39.3124 52.5936L39.3125 28.6875Z" fill="white"/>
<path d="M66.6719 0H1.32812C0.594602 0 0 0.594602 0 1.32812V66.6719C0 67.4053 0.594602 68 1.32812 68H66.6719C67.4054 68 68 67.4053 68 66.6719V1.32812C68 0.594602 67.4054 0 66.6719 0ZM65.3438 2.65625V15.9375H2.65625V2.65625H65.3438ZM2.65625 65.3438V18.5938H65.3438V65.3438H2.65625Z" fill="#53D0A6"/>
<path d="M10.0938 10.625H12.75C13.4835 10.625 14.0781 10.0304 14.0781 9.29688C14.0781 8.56335 13.4835 7.96875 12.75 7.96875H10.0938C9.36023 7.96875 8.76562 8.56335 8.76562 9.29688C8.76562 10.0304 9.36023 10.625 10.0938 10.625Z" fill="#53D0A6"/>
<path d="M20.7188 10.625H23.375C24.1085 10.625 24.7031 10.0304 24.7031 9.29688C24.7031 8.56335 24.1085 7.96875 23.375 7.96875H20.7188C19.9852 7.96875 19.3906 8.56335 19.3906 9.29688C19.3906 10.0304 19.9852 10.625 20.7188 10.625Z" fill="#53D0A6"/>
<path d="M31.3438 10.625H34C34.7335 10.625 35.3281 10.0304 35.3281 9.29688C35.3281 8.56335 34.7335 7.96875 34 7.96875H31.3438C30.6102 7.96875 30.0156 8.56335 30.0156 9.29688C30.0156 10.0304 30.6102 10.625 31.3438 10.625Z" fill="#53D0A6"/>
<path d="M41.9688 10.625H57.9062C58.6398 10.625 59.2344 10.0304 59.2344 9.29688C59.2344 8.56335 58.6398 7.96875 57.9062 7.96875H41.9688C41.2352 7.96875 40.6406 8.56335 40.6406 9.29688C40.6406 10.0304 41.2352 10.625 41.9688 10.625Z" fill="#53D0A6"/>
<path d="M39.6176 27.395C39.0183 27.2536 38.4001 27.5427 38.1245 28.0936C36.6211 31.1005 33.8682 33.2032 30.5717 33.8625L23.2436 35.328H15.4062C14.6727 35.328 14.0781 35.9226 14.0781 36.6562V44.6249C14.0781 45.3584 14.6727 45.953 15.4062 45.953H19.3906V52.5937C19.3906 53.3272 19.9852 53.9218 20.7188 53.9218C21.4523 53.9218 22.0469 53.3272 22.0469 52.5937V45.953H23.2436L30.5717 47.4186C33.8682 48.0779 36.6212 50.1806 38.1245 53.1876C38.3532 53.645 38.8179 53.9221 39.3121 53.9219C40.0443 53.9219 40.6405 53.3281 40.6405 52.5937V28.6875C40.6406 28.0716 40.2171 27.5365 39.6176 27.395ZM16.7344 37.9843H22.0469V43.2968H16.7344V37.9843ZM37.9842 48.4941C36.1311 46.634 33.7542 45.3464 31.0925 44.814L24.7031 43.5361V37.745L31.0926 36.467C33.7542 35.9347 36.1312 34.6471 37.9844 32.7869L37.9842 48.4941Z" fill="#53D0A6"/>
<path d="M52.5938 39.3125H47.2812C46.5477 39.3125 45.9531 39.9071 45.9531 40.6406C45.9531 41.3741 46.5477 41.9688 47.2812 41.9688H52.5938C53.3273 41.9688 53.9219 41.3741 53.9219 40.6406C53.9219 39.9071 53.3273 39.3125 52.5938 39.3125Z" fill="#53D0A6"/>
<path d="M52.0024 47.5044L48.018 44.8482C47.4079 44.4414 46.5831 44.6062 46.1763 45.2165C45.7695 45.8267 45.9343 46.6514 46.5446 47.0582L50.529 49.7144C51.1366 50.1195 51.9621 49.9591 52.3707 49.3461C52.7776 48.7359 52.6127 47.9112 52.0024 47.5044Z" fill="#53D0A6"/>
<path d="M48.0181 36.4331L52.0025 33.7769C52.6127 33.3701 52.7777 32.5455 52.3707 31.9352C51.9639 31.3248 51.1393 31.16 50.529 31.5669L46.5447 34.2231C45.9344 34.63 45.7694 35.4546 46.1764 36.0649C46.5842 36.6769 47.4095 36.839 48.0181 36.4331Z" fill="#53D0A6"/>
</svg>
