<svg width="68" height="68" viewBox="0 0 68 68" fill="none" xmlns="http://www.w3.org/2000/svg">
<path d="M9.29688 33.2031H17.2656V58.7031H9.29688V33.2031Z" fill="#FFCCCC"/>
<path d="M25.6328 41.1719H34V58.7031H25.6328V41.1719Z" fill="#FFCCCC"/>
<path d="M42.3672 33.2031H50.3359V58.7031H42.3672V33.2031Z" fill="#FFCCCC"/>
<path d="M58.3047 17.2656H66.6719V58.7031H58.3047V17.2656Z" fill="#FFCCCC"/>
<path d="M13.2812 25.2344C15.4818 25.2344 17.2656 23.4505 17.2656 21.25C17.2656 19.0495 15.4818 17.2656 13.2812 17.2656C11.0807 17.2656 9.29688 19.0495 9.29688 21.25C9.29688 23.4505 11.0807 25.2344 13.2812 25.2344Z" fill="white"/>
<path d="M46.3516 25.2344C48.5521 25.2344 50.3359 23.4505 50.3359 21.25C50.3359 19.0495 48.5521 17.2656 46.3516 17.2656C44.1511 17.2656 42.3672 19.0495 42.3672 21.25C42.3672 23.4505 44.1511 25.2344 46.3516 25.2344Z" fill="white"/>
<path d="M29.6172 33.2031C31.8177 33.2031 33.6016 31.4193 33.6016 29.2188C33.6016 27.0182 31.8177 25.2344 29.6172 25.2344C27.4167 25.2344 25.6328 27.0182 25.6328 29.2188C25.6328 31.4193 27.4167 33.2031 29.6172 33.2031Z" fill="#FF99AD"/>
<path d="M62.6875 9.29688C64.888 9.29688 66.6719 7.51301 66.6719 5.3125C66.6719 3.11199 64.888 1.32812 62.6875 1.32812C60.487 1.32812 58.7031 3.11199 58.7031 5.3125C58.7031 7.51301 60.487 9.29688 62.6875 9.29688Z" fill="#FF99AD"/>
<path d="M66.6719 65.3438H2.65625V1.32812C2.65625 0.594602 2.06165 0 1.32812 0C0.594602 0 0 0.594602 0 1.32812V66.6719C0 67.4053 0.594602 68 1.32812 68H66.6719C67.4053 68 68 67.4053 68 66.6719C68 65.9385 67.4053 65.3438 66.6719 65.3438Z" fill="#FF6684"/>
<path d="M9.29688 60.0312H17.2656C17.9991 60.0312 18.5938 59.4366 18.5938 58.7031V33.2031C18.5938 32.4696 17.9991 31.875 17.2656 31.875H9.29688C8.56335 31.875 7.96875 32.4696 7.96875 33.2031V58.7031C7.96875 59.4366 8.56335 60.0312 9.29688 60.0312ZM10.625 34.5312H15.9375V57.375H10.625V34.5312Z" fill="#FF6684"/>
<path d="M34 60.0312C34.7334 60.0312 35.3281 59.4366 35.3281 58.7031V41.1719C35.3281 40.4384 34.7334 39.8438 34 39.8438H25.6328C24.8993 39.8438 24.3047 40.4384 24.3047 41.1719V58.7031C24.3047 59.4366 24.8993 60.0312 25.6328 60.0312H34ZM26.9609 42.5H32.6719V57.375H26.9609V42.5Z" fill="#FF6684"/>
<path d="M50.3359 60.0312C51.0693 60.0312 51.6641 59.4366 51.6641 58.7031V33.2031C51.6641 32.4696 51.0693 31.875 50.3359 31.875H42.3672C41.6338 31.875 41.0391 32.4696 41.0391 33.2031V58.7031C41.0391 59.4366 41.6338 60.0312 42.3672 60.0312H50.3359ZM43.6953 34.5312H49.0078V57.375H43.6953V34.5312Z" fill="#FF6684"/>
<path d="M66.6719 15.9375H58.3047C57.5713 15.9375 56.9766 16.5321 56.9766 17.2656V58.7031C56.9766 59.4366 57.5713 60.0312 58.3047 60.0312H66.6719C67.4053 60.0312 68 59.4366 68 58.7031V17.2656C68 16.5321 67.4053 15.9375 66.6719 15.9375ZM65.3438 57.375H59.6328V18.5938H65.3438V57.375Z" fill="#FF6684"/>
<path d="M62.6874 0C59.758 0 57.3749 2.38319 57.3749 5.3125C57.3749 6.28814 57.6405 7.20255 58.1013 7.98907L49.0674 16.6866C48.272 16.2115 47.3433 15.9375 46.3514 15.9375C43.4221 15.9375 41.0389 18.3207 41.0389 21.25C41.0389 21.6174 41.0765 21.9762 41.1478 22.3227L33.6463 25.7623C32.6713 24.6273 31.2273 23.9062 29.6171 23.9062C28.0137 23.9062 26.5751 24.6212 25.6003 25.7478L18.4803 22.3419C18.5543 21.9892 18.5938 21.6241 18.5938 21.2499C18.5938 18.3206 16.2106 15.9374 13.2812 15.9374C10.3519 15.9374 7.96875 18.3206 7.96875 21.2499C7.96875 24.1792 10.3519 26.5624 13.2812 26.5624C14.8846 26.5624 16.3232 25.8474 17.298 24.7208L24.418 28.1268C24.344 28.4794 24.3046 28.8445 24.3046 29.2188C24.3046 32.1481 26.6877 34.5312 29.6171 34.5312C32.5464 34.5312 34.9296 32.1481 34.9296 29.2188C34.9296 28.8514 34.892 28.4925 34.8206 28.146L42.3222 24.7064C43.2971 25.8415 44.7412 26.5625 46.3514 26.5625C49.2807 26.5625 51.6639 24.1793 51.6639 21.25C51.6639 20.2744 51.3983 19.3599 50.9374 18.5734L59.9713 9.87594C60.7668 10.351 61.6955 10.625 62.6874 10.625C65.6167 10.625 67.9999 8.24181 67.9999 5.3125C67.9999 2.38319 65.6167 0 62.6874 0V0ZM13.2811 23.9062C11.8165 23.9062 10.6249 22.7147 10.6249 21.25C10.6249 19.7853 11.8165 18.5938 13.2811 18.5938C14.7458 18.5938 15.9374 19.7853 15.9374 21.25C15.9374 22.7147 14.7458 23.9062 13.2811 23.9062ZM29.6171 31.875C28.1524 31.875 26.9608 30.6834 26.9608 29.2188C26.9608 27.7541 28.1524 26.5625 29.6171 26.5625C31.0817 26.5625 32.2733 27.7541 32.2733 29.2188C32.2733 30.6834 31.0817 31.875 29.6171 31.875ZM46.3514 23.9062C44.8868 23.9062 43.6952 22.7147 43.6952 21.25C43.6952 19.7853 44.8868 18.5938 46.3514 18.5938C47.8161 18.5938 49.0077 19.7853 49.0077 21.25C49.0077 22.7147 47.8161 23.9062 46.3514 23.9062ZM62.6874 7.96875C61.2227 7.96875 60.0311 6.77716 60.0311 5.3125C60.0311 3.84784 61.2227 2.65625 62.6874 2.65625C64.152 2.65625 65.3436 3.84784 65.3436 5.3125C65.3436 6.77716 64.152 7.96875 62.6874 7.96875Z" fill="#FF6684"/>
</svg>
