<svg width="68" height="68" viewBox="0 0 68 68" fill="none" xmlns="http://www.w3.org/2000/svg">
<path d="M49.9374 34C49.9374 24.5631 41.7356 17.0419 32.0715 18.1759C25.1105 18.9927 19.3389 24.5202 18.2617 31.4457C17.4451 36.6949 19.1977 41.5486 22.4504 44.9651C24.7486 47.3788 26.0312 50.584 26.0312 53.9169V53.9219C26.0312 56.1224 27.815 57.9062 30.0156 57.9062H37.9843C40.1849 57.9062 41.9687 56.1224 41.9687 53.9219V53.9169C41.9687 50.5825 43.2503 47.3799 45.5494 44.965C48.2669 42.1107 49.9374 38.2532 49.9374 34Z" fill="#FFE6B3"/>
<path d="M37.9844 57.9062V62.6875C37.9844 64.8881 36.2006 66.6719 34 66.6719C31.7994 66.6719 30.0156 64.8881 30.0156 62.6875V57.9062" fill="#FFCD69"/>
<path d="M34 37.9844C35.4647 37.9844 36.6562 39.176 36.6562 40.6406C36.6562 42.1053 35.4647 43.2969 34 43.2969C32.9242 43.2969 31.9613 42.6554 31.5471 41.6625C31.2646 40.9857 30.4868 40.666 29.8099 40.9483C29.133 41.2308 28.8133 42.0086 29.0958 42.6855C29.7485 44.2497 31.0833 45.3745 32.6719 45.7825V47.2812C32.6719 48.0146 33.2665 48.6094 34 48.6094C34.7335 48.6094 35.3281 48.0146 35.3281 47.2812V45.785C37.6169 45.1937 39.3125 43.1115 39.3125 40.6406C39.3125 37.7113 36.9293 35.3281 34 35.3281C32.5353 35.3281 31.3438 34.1365 31.3438 32.6719C31.3438 31.2072 32.5353 30.0156 34 30.0156C35.0758 30.0156 36.0387 30.6571 36.4529 31.65C36.7354 32.327 37.513 32.6469 38.1901 32.3641C38.867 32.0817 39.1867 31.3039 38.9042 30.627C38.2515 29.0628 36.9167 27.938 35.3281 27.53V26.0312C35.3281 25.2979 34.7335 24.7031 34 24.7031C33.2665 24.7031 32.6719 25.2979 32.6719 26.0312V27.5275C30.3831 28.1188 28.6875 30.201 28.6875 32.6719C28.6875 35.6012 31.0707 37.9844 34 37.9844Z" fill="#FFA96B"/>
<path d="M16.9495 31.2415C16.1108 36.6341 17.7652 41.9698 21.4888 45.8809C23.5617 48.0582 24.7034 50.9121 24.7034 53.9219C24.7034 56.3927 26.399 58.4749 28.6877 59.0662V62.6875C28.6877 65.6168 31.0709 68 34.0002 68C36.9296 68 39.3127 65.6168 39.3127 62.6875V59.0662C41.6015 58.4748 43.2971 56.3919 43.2971 53.917C43.2971 50.9121 44.4388 48.0582 46.5117 45.8809C49.5774 42.6607 51.2659 38.4414 51.2659 34C51.2659 23.7657 42.3559 15.6304 31.9171 16.857C24.3695 17.7424 18.1176 23.7323 16.9495 31.2415ZM34.0002 65.3437C32.5356 65.3437 31.344 64.1521 31.344 62.6875V59.2344H36.6565V62.6875C36.6565 64.1521 35.4649 65.3437 34.0002 65.3437ZM48.6096 34C48.6096 37.7563 47.1814 41.3253 44.5878 44.0493C42.0426 46.7226 40.6409 50.2272 40.6409 53.9219C40.6409 55.3865 39.4493 56.5781 37.9846 56.5781H30.0159C28.5512 56.5781 27.3596 55.3865 27.3596 53.917C27.3596 50.2272 25.9579 46.7226 23.4126 44.0493C20.2623 40.7404 18.8632 36.221 19.5743 31.6499C20.5539 25.3522 25.8749 20.2404 32.2267 19.495C41.2639 18.4346 48.6096 25.5154 48.6096 34Z" fill="#FFA96B"/>
<path d="M19.2124 5.73143C18.8457 5.09619 18.0333 4.87851 17.3982 5.24534C16.7629 5.61217 16.5453 6.42432 16.9121 7.05956L20.8965 13.9606C21.2645 14.5981 22.0774 14.8124 22.7107 14.4467C23.3459 14.0799 23.5636 13.2677 23.1968 12.6325L19.2124 5.73143Z" fill="#FFA96B"/>
<path d="M12.6323 44.803L5.73119 48.7873C5.09595 49.1542 4.87827 49.9663 5.2451 50.6016C5.61312 51.2391 6.42606 51.4533 7.05931 51.0876L13.9604 47.1033C14.5956 46.7364 14.8133 45.9243 14.4465 45.289C14.0798 44.6538 13.2675 44.436 12.6323 44.803Z" fill="#FFA96B"/>
<path d="M55.3674 23.197L62.2685 19.2126C62.9037 18.8458 63.1214 18.0337 62.7546 17.3984C62.3878 16.7632 61.5755 16.5454 60.9404 16.9123L54.0393 20.8967C53.4041 21.2635 53.1864 22.0757 53.5532 22.7109C53.9212 23.3484 54.734 23.5627 55.3674 23.197Z" fill="#FFA96B"/>
<path d="M54.0393 47.1033L60.9404 51.0877C61.5743 51.4536 62.387 51.2383 62.7546 50.6016C63.1214 49.9663 62.9037 49.1542 62.2685 48.7874L55.3674 44.803C54.7324 44.4363 53.92 44.654 53.5532 45.2891C53.1864 45.9243 53.4041 46.7365 54.0393 47.1033Z" fill="#FFA96B"/>
<path d="M13.9604 20.8967L7.05931 16.9124C6.42434 16.5457 5.61192 16.7634 5.2451 17.3985C4.87827 18.0337 5.09595 18.8459 5.73119 19.2127L12.6323 23.1971C13.2662 23.563 14.0789 23.3477 14.4465 22.711C14.8133 22.0757 14.5956 21.2636 13.9604 20.8967Z" fill="#FFA96B"/>
<path d="M47.103 13.9606L51.0874 7.05953C51.4542 6.42429 51.2365 5.61214 50.6013 5.24531C49.9663 4.87862 49.1539 5.0963 48.7871 5.73141L44.8027 12.6325C44.4359 13.2677 44.6536 14.0799 45.2888 14.4467C45.9227 14.8127 46.7354 14.5973 47.103 13.9606Z" fill="#FFA96B"/>
<path d="M35.3281 10.0938V1.32812C35.3281 0.594734 34.7335 0 34 0C33.2665 0 32.6719 0.594734 32.6719 1.32812V10.0938C32.6719 10.8271 33.2665 11.4219 34 11.4219C34.7335 11.4219 35.3281 10.8271 35.3281 10.0938Z" fill="#FFA96B"/>
<path d="M11.4219 34C11.4219 33.2666 10.8273 32.6719 10.0938 32.6719H1.32812C0.594602 32.6719 0 33.2666 0 34C0 34.7334 0.594602 35.3281 1.32812 35.3281H10.0938C10.8273 35.3281 11.4219 34.7334 11.4219 34Z" fill="#FFA96B"/>
<path d="M66.6719 32.6719H57.9062C57.1727 32.6719 56.5781 33.2666 56.5781 34C56.5781 34.7334 57.1727 35.3281 57.9062 35.3281H66.6719C67.4054 35.3281 68 34.7334 68 34C68 33.2666 67.4054 32.6719 66.6719 32.6719Z" fill="#FFA96B"/>
</svg>
