<svg width="68" height="68" viewBox="0 0 68 68" fill="none" xmlns="http://www.w3.org/2000/svg">
<g clip-path="url(#clip0)">
<path d="M44.6249 1.32825L33.9999 17.2657L23.3749 1.32825L16.7446 5.74838L29.2113 24.4485L28.6874 25.2345H38.2644L51.255 5.74838L44.6249 1.32825Z" fill="white"/>
<path d="M1.32812 25.2345H66.6719V66.672H1.32812V25.2345Z" fill="#CCCCFF"/>
<path d="M66.6727 23.9062H40.747L52.3611 6.48498C52.7679 5.87471 52.6031 5.05008 51.9929 4.64327L45.3625 0.22315C44.7521 -0.183654 43.9274 -0.0189668 43.5208 0.591438L34.0008 14.8714L24.4808 0.591438C24.074 -0.0189668 23.2495 -0.183787 22.6391 0.22315L16.0088 4.64327C15.3984 5.05008 15.2336 5.87471 15.6405 6.48498L27.2547 23.9062H1.3291C0.59571 23.9062 0.000976562 24.501 0.000976562 25.2344V66.6718C0.000976562 67.4052 0.59571 67.9999 1.3291 67.9999H66.6727C67.4061 67.9999 68.0008 67.4052 68.0008 66.6718V25.2344C68.0008 24.501 67.4061 23.9062 66.6727 23.9062ZM44.9942 3.16986L49.4143 6.11669L37.5546 23.9062H31.1699C32.5586 21.8233 43.6141 5.23987 44.9942 3.16986ZM23.0075 3.16986L32.4046 17.2656L29.2124 22.0542L18.5874 6.11669L23.0075 3.16986ZM65.3446 65.3437H2.65722V26.5625H65.3446V65.3437Z" fill="#B578D3"/>
<path d="M34 35.3282H36.6562C37.3896 35.3282 37.9844 34.7335 37.9844 34.0001C37.9844 33.2667 37.3896 32.672 36.6562 32.672H34C33.2666 32.672 32.6719 33.2667 32.6719 34.0001C32.6719 34.7336 33.2665 35.3282 34 35.3282Z" fill="#B578D3"/>
<path d="M44.625 35.3282H47.2812C48.0146 35.3282 48.6094 34.7335 48.6094 34.0001C48.6094 33.2667 48.0146 32.672 47.2812 32.672H44.625C43.8916 32.672 43.2969 33.2667 43.2969 34.0001C43.2969 34.7336 43.8915 35.3282 44.625 35.3282Z" fill="#B578D3"/>
<path d="M55.25 35.3282H57.9062C58.6396 35.3282 59.2344 34.7335 59.2344 34.0001C59.2344 33.2667 58.6396 32.672 57.9062 32.672H55.25C54.5166 32.672 53.9219 33.2667 53.9219 34.0001C53.9219 34.7336 54.5165 35.3282 55.25 35.3282Z" fill="#B578D3"/>
<path d="M57.9062 40.6408H34C33.2666 40.6408 32.6719 41.2355 32.6719 41.9689C32.6719 42.7023 33.2666 43.2971 34 43.2971H57.9062C58.6396 43.2971 59.2344 42.7023 59.2344 41.9689C59.2344 41.2355 58.6396 40.6408 57.9062 40.6408Z" fill="#B578D3"/>
<path d="M57.9062 48.6096H34C33.2666 48.6096 32.6719 49.2043 32.6719 49.9377C32.6719 50.6711 33.2666 51.2658 34 51.2658H57.9062C58.6396 51.2658 59.2344 50.6711 59.2344 49.9377C59.2344 49.2043 58.6396 48.6096 57.9062 48.6096Z" fill="#B578D3"/>
<path d="M57.9062 56.5783H34C33.2666 56.5783 32.6719 57.173 32.6719 57.9064C32.6719 58.6398 33.2666 59.2346 34 59.2346H57.9062C58.6396 59.2346 59.2344 58.6398 59.2344 57.9064C59.2344 57.173 58.6396 56.5783 57.9062 56.5783Z" fill="#B578D3"/>
<path d="M23.375 37.9845C23.375 35.0552 20.9918 32.672 18.0625 32.672C15.1332 32.672 12.75 35.0552 12.75 37.9845C12.75 40.9138 15.1332 43.297 18.0625 43.297C20.9918 43.297 23.375 40.9138 23.375 37.9845Z" fill="white"/>
<path d="M26.0312 56.5783H10.0938C9.36036 56.5783 8.76562 57.173 8.76562 57.9064C8.76562 58.6398 9.36036 59.2346 10.0938 59.2346H26.0312C26.7646 59.2346 27.3594 58.6398 27.3594 57.9064C27.3594 57.173 26.7646 56.5783 26.0312 56.5783Z" fill="#B578D3"/>
<path d="M10.5717 51.2658H25.5531C25.9819 51.2658 26.3842 51.0587 26.6335 50.7099C26.8829 50.3612 26.9485 49.9136 26.8098 49.5079C25.5397 45.7928 22.0243 43.2969 18.0625 43.2969C14.1007 43.2969 10.5852 45.7928 9.31516 49.5079C9.17637 49.9136 9.24198 50.3612 9.4914 50.7099C9.74056 51.0588 10.143 51.2658 10.5717 51.2658Z" fill="white"/>
</g>
<defs>
<clipPath id="clip0">
<rect width="68" height="68" fill="white"/>
</clipPath>
</defs>
</svg>
